<svg xmlns="http://www.w3.org/2000/svg" xmlns:xlink="http://www.w3.org/1999/xlink" width="157.333" height="66.667" viewBox="0 0 157.333 66.667"><defs><clipPath id="b"><path d="M-7.52 63.777h163.189V4.347H-7.52Z"/></clipPath></defs><g clip-path="url(#b)"><path d="M62.117 17.518c.215.44.42.87.645 1.28h.019c.253-.438.486-.925.72-1.401l.879-1.787c.42-.851.692-1.365.71-1.795.319.028.516.028.703.028.233 0 .542-.01.832-.028.056.037.056.196.009.233l-.196.019c-.59.056-.664.234-.655.889.019.99.028 2.72.103 4.068.028.467.019.72.458.757l.3.029c.056.055.046.196-.02.233a23 23 0 0 0-2.234 0c-.066-.047-.075-.178-.02-.233l.272-.03c.458-.046.458-.195.458-.793l-.028-3.9h-.018c-.066.102-.421.85-.608 1.215l-.833 1.637c-.421.823-.841 1.702-1.01 2.132-.018.028-.056.038-.093.038-.02 0-.066-.01-.084-.038-.16-.495-.608-1.412-.823-1.87l-.842-1.805c-.197-.43-.393-.917-.6-1.347h-.017c-.038.58-.066 1.122-.094 1.665-.028.57-.065 1.403-.065 2.198 0 .692.056.84.42.869l.356.029c.065.055.056.205-.01.233a18 18 0 0 0-1.992 0c-.056-.047-.074-.187-.018-.233l.206-.03c.392-.055.523-.111.579-.765.057-.618.103-1.132.16-2.058.046-.776.084-1.571.102-2.086.019-.59-.056-.73-.626-.804l-.15-.02c-.047-.055-.037-.195.037-.232.28.018.506.028.739.028.216 0 .468 0 .776-.028-.037.364.197.944.487 1.543ZM68.495 14.665c0 .337-.234.486-.496.486a.46.46 0 0 1-.477-.467c0-.309.225-.505.505-.505.281 0 .468.224.468.486m-.776 2.665c0-.365 0-.41-.253-.579l-.084-.057c-.038-.037-.038-.14.01-.168.214-.075.748-.318.963-.458.046 0 .084.02.093.056-.019.327-.037.776-.037 1.16v1.683c0 .673.018.767.355.814l.197.028c.065.046.047.205-.019.233a13 13 0 0 0-1.758 0c-.066-.028-.085-.187-.019-.233l.196-.028c.346-.047.356-.14.356-.814ZM70.029 17.33c0-.364 0-.411-.252-.58l-.085-.055c-.037-.037-.037-.14.01-.168.215-.075.748-.318.935-.46a.11.11 0 0 1 .103.067c-.02.215-.02.355-.02.439 0 .057.039.103.104.103.393-.243.832-.477 1.309-.477.777 0 1.095.533 1.095 1.16v1.609c0 .673.018.766.355.813l.206.028c.065.047.047.206-.02.234a13 13 0 0 0-.878-.028c-.337 0-.617.009-.87.028-.065-.028-.084-.187-.02-.234l.179-.028c.346-.056.356-.14.356-.813v-1.394c0-.533-.244-.926-.88-.926-.355 0-.663.15-.794.328-.122.159-.141.29-.141.56v1.432c0 .673.019.757.356.813l.168.028c.065.047.047.206-.02.234a11 11 0 0 0-.85-.028c-.337 0-.617.009-.88.028-.065-.028-.083-.187-.018-.234l.197-.028c.346-.047.355-.14.355-.813ZM75.622 14.665c0 .337-.234.486-.495.486a.46.46 0 0 1-.478-.467c0-.309.225-.505.505-.505s.468.224.468.486m-.776 2.665c0-.365 0-.41-.252-.579l-.085-.057c-.037-.037-.037-.14.01-.168.215-.075.748-.318.963-.458.047 0 .084.02.094.056-.02.327-.038.776-.038 1.16v1.683c0 .673.019.767.355.814l.197.028c.065.046.047.205-.02.233-.28-.018-.551-.028-.878-.028-.336 0-.617.01-.88.028-.065-.028-.083-.187-.018-.233l.196-.028c.347-.047.356-.14.356-.814ZM78.802 16.367c.084.206.15.505.15.758-.038.065-.178.084-.225.028-.159-.412-.44-.683-.823-.683-.365 0-.599.234-.599.57 0 .384.393.59.721.777.495.28.953.598.953 1.262 0 .711-.654 1.066-1.346 1.066-.44 0-.767-.093-1-.28-.076-.178-.132-.636-.113-.945.047-.056.168-.065.215-.009.16.514.458.963.991.963.337 0 .627-.196.627-.598 0-.43-.375-.664-.72-.86-.543-.309-.926-.637-.926-1.15 0-.684.561-1.067 1.271-1.067.394 0 .74.093.824.168M80.85 16.723c-.159 0-.169.028-.169.224v1.749c0 .543.066 1.038.683 1.038a.7.7 0 0 0 .253-.046c.084-.028.206-.131.234-.131.074 0 .112.103.093.158a1.3 1.3 0 0 1-.982.431c-.804 0-.972-.449-.972-1.01v-2.142c0-.253-.01-.271-.197-.271h-.262c-.056-.037-.065-.14-.028-.196.271-.085.505-.206.6-.29.12-.113.298-.365.392-.552.046-.019.158-.019.196.047v.42c0 .169.01.178.168.178h1.038c.113.084.094.337.01.393ZM82.861 17.33c0-.364 0-.411-.253-.58l-.084-.055c-.037-.037-.037-.14.01-.168.215-.075.711-.318.944-.46.047.01.075.029.075.067v.542q0 .07.028.084c.328-.271.683-.561 1.03-.561.233 0 .42.15.42.374a.416.416 0 0 1-.402.43c-.094 0-.14-.027-.206-.065a.77.77 0 0 0-.412-.15.41.41 0 0 0-.336.188c-.094.13-.122.402-.122.72v1.272c0 .673.02.785.374.813l.337.028c.065.047.047.206-.019.234a22 22 0 0 0-1.038-.028c-.337 0-.617.009-.86.028-.066-.028-.085-.187-.019-.234l.178-.028c.346-.056.355-.14.355-.813ZM85.348 21.942c0-.252.17-.374.374-.374h.178c.15 0 .243-.066.308-.17.272-.42.46-.812.543-1.037.028-.074.094-.271.094-.402 0-.187-.038-.3-.159-.645l-.73-2.001c-.159-.44-.224-.665-.55-.73l-.235-.047c-.057-.046-.047-.205.027-.233a13.455 13.455 0 0 0 1.703 0c.075.028.084.187.02.233l-.235.047c-.13.028-.206.056-.206.122 0 .112.215.72.271.879l.3.86c.055.15.233.645.271.664.028-.02.177-.308.346-.692l.318-.74c.205-.485.327-.831.327-.934 0-.066-.056-.131-.224-.16l-.29-.046c-.066-.046-.056-.205.018-.233.3.018.58.028.823.028.234 0 .45-.01.711-.028.075.037.084.177.02.233l-.16.028c-.309.057-.477.328-.795.992l-.524 1.075c-.309.627-1.075 2.254-1.534 3.274-.159.355-.383.439-.598.439-.272 0-.412-.168-.412-.402M93.579 16.48c-.617 0-1.075.589-1.075 1.618 0 .85.383 1.767 1.206 1.767s1.075-.86 1.075-1.58c0-.795-.318-1.805-1.206-1.805m2.011 1.655c0 1.169-.805 2.01-1.974 2.01-1.075 0-1.917-.756-1.917-1.926 0-1.178.889-2.02 1.992-2.02 1.048 0 1.899.786 1.899 1.936M97.563 16.723c-.159 0-.159.018-.159.271v1.974c0 .673.02.785.355.813l.337.028c.066.047.047.206-.018.234a21 21 0 0 0-1.02-.028c-.337 0-.617.009-.898.028-.065-.028-.084-.187-.018-.234l.215-.028c.346-.047.355-.14.355-.813v-1.974c0-.253 0-.271-.187-.271h-.327c-.056-.037-.066-.122-.028-.178l.402-.196c.075-.038.14-.094.14-.187 0-.543.065-1.122.29-1.646.234-.533.757-1.188 1.683-1.188.496 0 .917.224.917.561 0 .187-.178.337-.356.337-.102 0-.159-.038-.224-.112-.178-.206-.44-.412-.748-.412-.29 0-.524.178-.664.514-.168.431-.206 1.113-.206 1.581v.271c0 .253 0 .262.16.262h1.065c.103.094.038.356-.065.393ZM60.443 25.833c0 .252.028.252.309.252h.636c.383 0 .682-.018.794-.056.103-.037.178-.084.234-.327l.084-.374c.047-.056.206-.056.244 0 0 .224-.038.599-.038.944 0 .337.038.693.038.908-.038.056-.178.056-.244 0l-.093-.365c-.047-.17-.122-.3-.3-.355-.13-.038-.364-.047-.72-.047h-.635c-.281 0-.31.009-.31.252v1.3c0 .982.02 1.122.57 1.169l.319.028c.057.038.038.206-.018.234-.552-.02-.87-.028-1.244-.028-.412 0-.73.009-1.17.028-.055-.028-.074-.178-.018-.234l.234-.028c.542-.065.56-.187.56-1.17v-3.366c0-.982-.018-1.113-.56-1.178l-.15-.02c-.056-.036-.037-.204.019-.233.393.019.71.029 1.085.029h1.72c.599 0 1.142 0 1.263-.03 0 .432.01.88.028 1.236-.028.056-.16.084-.224.028-.075-.421-.187-.767-.655-.89-.206-.055-.514-.055-.907-.055h-.57c-.281 0-.281.019-.281.375ZM65.287 25.833c-.617 0-1.076.589-1.076 1.618 0 .85.384 1.767 1.207 1.767s1.075-.86 1.075-1.58c0-.795-.318-1.805-1.206-1.805m2.011 1.655c0 1.169-.805 2.01-1.974 2.01-1.075 0-1.917-.757-1.917-1.926 0-1.178.89-2.02 1.992-2.02 1.048 0 1.9.786 1.9 1.936M68.448 26.684c0-.365 0-.412-.252-.58l-.084-.056c-.038-.037-.038-.14.01-.168.214-.075.71-.318.943-.46.047.01.075.029.075.067v.542q0 .07.028.084c.328-.271.683-.561 1.03-.561.233 0 .42.15.42.375 0 .308-.253.43-.402.43-.094 0-.14-.028-.206-.066a.77.77 0 0 0-.41-.15.42.42 0 0 0-.338.188c-.094.13-.122.402-.122.72v1.272c0 .673.02.785.374.813l.337.028c.066.047.047.206-.019.234a22 22 0 0 0-1.038-.028c-.337 0-.617.009-.86.028-.066-.028-.085-.187-.019-.234l.178-.028c.346-.056.355-.14.355-.813ZM72.246 26.693c.692 0 .898-.037.973-.094.028-.018.056-.055.056-.177 0-.262-.178-.59-.72-.59-.552 0-1.03.506-1.04.814 0 .019 0 .047.067.047Zm-.58.28c-.243 0-.253.019-.253.253 0 .945.552 1.749 1.553 1.749.309 0 .57-.093.86-.458.094-.028.159.028.169.112-.31.636-.982.87-1.468.87-.608 0-1.085-.262-1.357-.617a2 2 0 0 1-.392-1.216c0-1.151.757-2.114 1.88-2.114.804 0 1.327.552 1.327 1.113a.6.6 0 0 1-.037.243c-.028.056-.16.066-.551.066ZM76.623 25.72c.084.206.15.505.15.758-.038.065-.178.084-.225.028-.159-.412-.44-.683-.823-.683-.365 0-.598.234-.598.57 0 .384.392.59.72.777.495.28.954.598.954 1.262 0 .711-.655 1.067-1.347 1.067-.44 0-.767-.094-1-.28-.076-.179-.132-.637-.113-.946.047-.056.168-.065.215-.009.16.514.458.963.991.963.337 0 .627-.196.627-.598 0-.43-.374-.664-.72-.86-.543-.309-.926-.637-.926-1.15 0-.684.561-1.067 1.272-1.067.393 0 .74.093.823.168M78.671 26.076c-.159 0-.168.028-.168.224v1.749c0 .543.065 1.038.682 1.038a.7.7 0 0 0 .253-.046c.084-.028.206-.131.234-.131.075 0 .112.103.093.158a1.3 1.3 0 0 1-.982.43c-.804 0-.972-.448-.972-1.01v-2.141c0-.253-.009-.271-.197-.271h-.262c-.056-.038-.065-.14-.028-.196.272-.085.505-.207.599-.29.121-.113.299-.365.393-.552.046-.02.158-.02.196.047v.42c0 .168.01.178.168.178h1.038c.113.084.094.337.01.393ZM82.328 25.72c.084.206.15.505.15.758-.038.065-.178.084-.225.028-.159-.412-.44-.683-.823-.683-.365 0-.598.234-.598.57 0 .384.393.59.72.777.495.28.954.598.954 1.262 0 .711-.655 1.067-1.347 1.067-.439 0-.767-.094-1-.28-.076-.179-.132-.637-.113-.946.047-.056.168-.065.215-.009.16.514.46.963.992.963.336 0 .626-.196.626-.598 0-.43-.374-.664-.72-.86-.543-.309-.926-.637-.926-1.15 0-.684.561-1.067 1.272-1.067.393 0 .74.093.823.168M84.488 29.143c0 .74-.56 1.16-1.216 1.356-.084-.028-.112-.178-.056-.224.29-.094.767-.328.767-.814 0-.393-.449-.496-.533-.542-.122-.066-.159-.159-.159-.272 0-.215.16-.42.458-.42.327 0 .74.3.74.916M88.38 24.598c0-.982-.019-1.132-.609-1.178l-.233-.019c-.057-.038-.038-.206.018-.234.524.02.842.028 1.216.028.365 0 .683-.009 1.15-.028.056.028.075.196.02.234l-.225.02c-.552.045-.57.195-.57 1.177v3.255c0 .59.027.832.195 1.01.103.102.281.215 1.02.215.795 0 .991-.038 1.141-.122.187-.112.43-.449.617-.926.056-.046.234-.009.234.056 0 .103-.262 1.057-.393 1.31a71 71 0 0 0-2.328-.028h-.86c-.394 0-.693.01-1.217.028-.056-.028-.075-.178-.018-.234l.28-.028c.543-.056.561-.187.561-1.169ZM93.898 29.078c.187 0 .477-.14.57-.234.113-.112.113-.243.122-.44l.018-.551c0-.103-.037-.122-.093-.122s-.215.038-.383.094c-.552.187-.823.327-.823.692 0 .159.112.56.589.56m.58-1.645c.14-.047.159-.131.159-.271l.009-.43c.009-.347-.103-.814-.683-.814-.262 0-.58.13-.598.42-.01.15-.02.263-.094.319-.14.112-.393.178-.533.178-.084 0-.131-.047-.131-.131 0-.487 1.057-1.151 1.739-1.151.674 0 1 .393.973 1.094l-.056 1.628c-.018.43.066.813.43.813a.54.54 0 0 0 .234-.056c.047-.028.094-.065.122-.065.037 0 .066.056.066.12 0 .048-.328.413-.786.413a.75.75 0 0 1-.608-.29c-.038-.056-.093-.131-.15-.131-.065 0-.177.084-.364.187-.206.112-.412.234-.674.234-.271 0-.495-.075-.655-.215a.88.88 0 0 1-.29-.655c0-.365.178-.58.777-.795ZM96.862 26.684c0-.365 0-.412-.252-.58l-.085-.056c-.037-.037-.037-.14.01-.168.215-.075.748-.318.935-.46a.11.11 0 0 1 .103.067c-.019.215-.019.355-.019.44 0 .055.038.102.103.102.393-.243.832-.477 1.31-.477.775 0 1.094.533 1.094 1.16v1.609c0 .673.018.766.355.813l.205.028c.066.047.047.206-.018.234a13 13 0 0 0-.88-.028c-.336 0-.616.009-.869.028-.066-.028-.084-.187-.019-.234l.178-.028c.346-.056.355-.14.355-.813v-1.394c0-.533-.243-.926-.879-.926-.355 0-.664.15-.795.328-.12.158-.14.289-.14.56v1.432c0 .673.02.757.356.813l.168.028c.065.047.046.206-.019.234a11 11 0 0 0-.85-.028c-.338 0-.618.009-.88.028-.066-.028-.084-.187-.019-.234l.197-.028c.346-.047.355-.14.355-.813ZM104.036 26.6c0-.188-.037-.272-.103-.366a.98.98 0 0 0-.786-.393c-.851 0-1.29.74-1.29 1.553 0 .851.477 1.655 1.393 1.655.253 0 .57-.112.72-.26.057-.058.066-.198.066-.348Zm.692 1.402c0 .74.009 1.085.271 1.085.103 0 .262-.047.402-.094.066.02.075.253-.009.3-.393.056-.973.196-1.235.3-.055 0-.103-.029-.103-.076v-.159c0-.14 0-.253-.018-.29h-.037c-.412.281-.73.43-1.179.43-1.038 0-1.73-.813-1.73-1.795 0-1.31.991-2.152 2.263-2.152.318 0 .524.047.627.085.047 0 .056-.056.056-.13v-1.413c0-.552-.009-.608-.29-.777l-.094-.056c-.046-.028-.046-.159 0-.187.234-.075.674-.215 1.01-.393.038 0 .075.02.094.057-.009.28-.028.748-.028 1.16ZM107.992 25.72c.084.206.15.505.15.758-.038.065-.178.084-.225.028-.16-.412-.44-.683-.823-.683-.364 0-.598.234-.598.57 0 .384.393.59.72.777.495.28.954.598.954 1.262 0 .711-.655 1.067-1.347 1.067-.44 0-.767-.094-1-.28-.075-.179-.132-.637-.113-.946.047-.056.168-.065.215-.009.16.514.458.963.992.963.336 0 .626-.196.626-.598 0-.43-.374-.664-.72-.86-.543-.309-.926-.637-.926-1.15 0-.684.56-1.067 1.272-1.067.393 0 .739.093.823.168M110.153 29.143c0 .74-.562 1.16-1.216 1.356-.084-.028-.112-.178-.056-.224.29-.094.767-.328.767-.814 0-.393-.45-.496-.533-.542-.122-.066-.16-.159-.16-.272 0-.215.16-.42.459-.42.326 0 .739.3.739.916M119.075 27.778c0 .28 0 1.393.028 1.637-.02.056-.075.103-.178.103-.112-.16-.383-.487-1.197-1.413l-2.17-2.47c-.252-.29-.888-1.056-1.084-1.261h-.02c-.037.112-.046.327-.046.608v2.038c0 .44.009 1.656.168 1.936.057.103.244.159.478.178l.29.028c.055.075.046.187-.02.234a23 23 0 0 0-1.094-.028c-.392 0-.645.009-.972.028-.066-.047-.075-.178-.02-.234l.254-.028c.215-.028.365-.084.41-.187.132-.337.123-1.478.123-1.927v-2.702c0-.262-.01-.46-.206-.674-.131-.131-.355-.196-.58-.224l-.16-.02c-.055-.055-.055-.195.02-.233.393.028.888.028 1.057.028.149 0 .308-.01.43-.028.187.477 1.29 1.712 1.599 2.058l.907 1.019c.645.72 1.104 1.244 1.543 1.693h.019c.038-.047.038-.196.038-.393v-2.001c0-.44-.01-1.656-.187-1.936-.056-.084-.206-.14-.58-.187l-.16-.02c-.065-.055-.056-.205.02-.233.429.019.748.028 1.103.028.402 0 .645-.01.963-.028.075.047.075.178.019.234l-.131.019c-.3.047-.486.12-.524.196-.16.337-.14 1.497-.14 1.927ZM121.432 29.078c.187 0 .477-.14.57-.234.113-.112.113-.243.122-.44l.019-.551c0-.103-.038-.122-.093-.122-.057 0-.215.038-.384.094-.552.187-.823.327-.823.692 0 .159.112.56.589.56m.58-1.645c.14-.047.159-.131.159-.271l.01-.43c.009-.347-.103-.814-.683-.814-.262 0-.58.13-.6.42-.008.15-.017.263-.092.319a1 1 0 0 1-.533.178c-.085 0-.131-.047-.131-.131 0-.487 1.056-1.151 1.739-1.151.674 0 1 .393.973 1.094l-.056 1.628c-.02.43.065.813.43.813a.54.54 0 0 0 .234-.056c.046-.028.094-.065.12-.065.039 0 .067.056.067.12 0 .048-.327.413-.786.413a.75.75 0 0 1-.608-.29c-.037-.056-.093-.131-.15-.131-.065 0-.177.084-.364.187-.206.112-.412.234-.674.234-.271 0-.495-.075-.654-.215a.87.87 0 0 1-.29-.655c0-.365.177-.58.776-.795ZM125.164 26.076c-.16 0-.17.028-.17.224v1.749c0 .543.067 1.038.684 1.038a.7.7 0 0 0 .253-.046c.084-.028.206-.131.233-.131.075 0 .113.103.094.158a1.3 1.3 0 0 1-.982.43c-.804 0-.972-.448-.972-1.01v-2.141c0-.253-.01-.271-.197-.271h-.262c-.056-.038-.065-.14-.028-.196.27-.085.505-.207.599-.29.122-.113.299-.365.393-.552.046-.02.158-.02.196.047v.42c0 .168.009.178.168.178h1.038c.112.084.094.337.01.393ZM127.745 27.993c0 .646.16 1.076.87 1.076.252 0 .551-.103.757-.281.122-.112.187-.253.187-.543v-1.533c0-.608-.065-.627-.346-.74l-.12-.046c-.067-.037-.067-.168.008-.206.374-.01.888-.074 1.094-.168.047.009.075.028.084.066a9 9 0 0 0-.028.813V28c0 .74.028 1.02.29 1.02.112 0 .234-.018.365-.046.056.047.066.234-.009.272-.365.074-.908.168-1.226.345a.13.13 0 0 1-.112-.065v-.383q0-.13-.084-.131c-.28.177-.739.486-1.29.486-.824 0-1.132-.412-1.132-1.17v-1.561c0-.59 0-.673-.28-.795l-.113-.047c-.056-.046-.047-.177.02-.206.43-.01.794-.093 1-.168.056.009.083.028.093.066a7 7 0 0 0-.028.813ZM131.87 26.684c0-.365 0-.412-.253-.58l-.084-.056c-.037-.037-.037-.14.01-.168.215-.075.71-.318.944-.46.047.01.075.029.075.067v.542q0 .07.028.084c.328-.271.683-.561 1.029-.561.234 0 .42.15.42.375 0 .308-.252.43-.401.43-.094 0-.141-.028-.206-.066a.78.78 0 0 0-.412-.15.41.41 0 0 0-.336.188c-.094.13-.122.402-.122.72v1.272c0 .673.019.785.374.813l.337.028c.066.047.047.206-.02.234a22 22 0 0 0-1.037-.028c-.337 0-.617.009-.86.028-.066-.028-.085-.187-.02-.234l.179-.028c.346-.056.355-.14.355-.813ZM135.602 29.078c.187 0 .477-.14.57-.234.113-.112.113-.243.122-.44l.019-.551c0-.103-.038-.122-.094-.122s-.215.038-.384.094c-.551.187-.823.327-.823.692 0 .159.113.56.59.56m.579-1.645c.14-.047.16-.131.16-.271l.009-.43c.009-.347-.103-.814-.683-.814-.262 0-.58.13-.598.42-.01.15-.02.263-.094.319-.14.112-.393.178-.533.178-.084 0-.131-.047-.131-.131 0-.487 1.057-1.151 1.74-1.151.673 0 1 .393.972 1.094l-.056 1.628c-.018.43.066.813.43.813a.54.54 0 0 0 .234-.056c.047-.028.094-.065.122-.065.037 0 .065.056.065.12 0 .048-.327.413-.785.413a.75.75 0 0 1-.608-.29c-.038-.056-.094-.131-.15-.131-.065 0-.178.084-.365.187-.205.112-.411.234-.673.234-.271 0-.496-.075-.655-.215a.88.88 0 0 1-.29-.655c0-.365.178-.58.777-.795ZM139.165 28.32c0 .673.019.767.355.814l.225.028c.065.046.047.206-.02.234a14 14 0 0 0-1.804 0c-.065-.028-.084-.188-.02-.234l.216-.028c.347-.047.356-.14.356-.814v-4.227c0-.552-.01-.608-.29-.777l-.094-.056c-.046-.028-.046-.159 0-.187.234-.074.673-.215 1.01-.393.038 0 .075.02.094.057-.01.28-.028.748-.028 1.16ZM60.443 35.298c0 .168 0 .27.028.309.028.027.168.046.645.046.337 0 .692-.037.964-.243.252-.196.467-.524.467-1.16 0-.738-.458-1.44-1.496-1.44-.58 0-.608.037-.608.299Zm-.767-1.338c0-.888-.028-1.047-.411-1.094l-.3-.037c-.065-.047-.065-.197.01-.234a23 23 0 0 1 2.085-.075c.58 0 1.132.047 1.562.28.449.235.776.655.776 1.31 0 .889-.701 1.375-1.17 1.562-.046.056 0 .149.048.225.748 1.206 1.244 1.954 1.88 2.487.159.14.393.243.645.262.047.019.056.094.009.13a1.5 1.5 0 0 1-.411.048c-.795 0-1.272-.234-1.936-1.18-.243-.345-.627-.99-.916-1.411-.141-.206-.29-.3-.665-.3-.42 0-.44.01-.44.206v1.179c0 .982.02 1.094.562 1.169l.196.028c.057.047.038.206-.018.234a23 23 0 0 0-2.282 0c-.056-.028-.075-.168-.02-.234l.235-.028c.542-.065.56-.187.56-1.17ZM66.101 36.046c.692 0 .898-.037.973-.094.028-.018.056-.055.056-.177 0-.262-.178-.59-.72-.59-.552 0-1.029.506-1.039.814 0 .019 0 .047.066.047Zm-.58.28c-.243 0-.252.019-.252.253 0 .945.551 1.749 1.552 1.749.309 0 .571-.093.861-.458.093-.028.158.028.168.112-.309.636-.982.87-1.468.87-.608 0-1.085-.262-1.356-.617a2 2 0 0 1-.393-1.216c0-1.151.757-2.114 1.88-2.114.804 0 1.327.552 1.327 1.113a.6.6 0 0 1-.037.243c-.028.056-.159.066-.551.066ZM70.478 35.073c.084.206.15.505.15.758-.038.065-.178.083-.225.028-.159-.412-.44-.683-.823-.683-.365 0-.598.234-.598.571 0 .383.392.59.72.776.495.28.954.598.954 1.262 0 .711-.655 1.067-1.347 1.067-.44 0-.767-.094-1-.28-.076-.179-.132-.637-.113-.946.047-.056.168-.065.215-.009.16.514.458.963.991.963.337 0 .627-.196.627-.598 0-.43-.374-.664-.72-.86-.543-.309-.926-.637-.926-1.15 0-.684.561-1.067 1.272-1.067.393 0 .74.093.823.168M73.05 35.186c-.617 0-1.076.589-1.076 1.618 0 .85.384 1.767 1.207 1.767s1.075-.86 1.075-1.58c0-.795-.318-1.805-1.206-1.805m2.011 1.655c0 1.169-.805 2.01-1.974 2.01-1.075 0-1.917-.757-1.917-1.926 0-1.178.89-2.02 1.992-2.02 1.048 0 1.9.786 1.9 1.936M76.782 37.346c0 .645.16 1.075.87 1.075.252 0 .551-.102.757-.28.122-.112.187-.253.187-.543v-1.534c0-.607-.065-.626-.346-.739l-.12-.046c-.067-.038-.067-.168.008-.206.374-.009.888-.074 1.094-.168.047.009.075.028.084.065a9 9 0 0 0-.028.814v1.571c0 .739.028 1.019.29 1.019.112 0 .234-.018.365-.046.056.046.066.234-.009.271-.365.075-.908.168-1.226.346a.13.13 0 0 1-.112-.066v-.383c0-.084-.028-.131-.084-.131-.28.178-.739.487-1.29.487-.824 0-1.132-.412-1.132-1.169v-1.562c0-.59 0-.674-.28-.796l-.113-.046c-.056-.047-.047-.177.02-.206.43-.009.794-.093 1-.168.056.009.084.028.093.065a7 7 0 0 0-.028.814ZM80.906 36.037c0-.365 0-.411-.253-.58l-.084-.056c-.037-.037-.037-.14.01-.168.215-.075.711-.318.944-.46.047.01.075.029.075.067v.542q0 .07.028.085c.328-.272.683-.562 1.03-.562.233 0 .42.15.42.374a.416.416 0 0 1-.402.43c-.094 0-.14-.028-.206-.065a.77.77 0 0 0-.412-.15.41.41 0 0 0-.336.187c-.094.132-.122.403-.122.72v1.273c0 .673.02.785.374.813l.337.028c.065.047.047.206-.019.234a22 22 0 0 0-1.038-.028c-.337 0-.617.009-.86.028-.066-.028-.085-.187-.019-.234l.178-.028c.346-.056.355-.14.355-.813ZM86.378 35.064c.075.065.14.215.14.374 0 .169-.094.346-.206.346a.16.16 0 0 1-.131-.065c-.205-.253-.551-.496-.935-.496-.655 0-1.29.514-1.29 1.506 0 .729.505 1.599 1.505 1.599.543 0 .823-.243 1.038-.561.075-.02.159.047.169.13-.318.693-1.02.955-1.562.955-.496 0-.954-.16-1.281-.478-.328-.317-.543-.776-.543-1.383 0-1.01.711-2.086 2.263-2.086.215 0 .58.047.833.159M88.389 36.046c.692 0 .898-.037.973-.094.027-.018.056-.055.056-.177 0-.262-.178-.59-.72-.59-.552 0-1.03.506-1.04.814 0 .019 0 .047.067.047Zm-.58.28c-.243 0-.253.019-.253.253 0 .945.552 1.749 1.553 1.749.309 0 .57-.093.86-.458.094-.028.159.028.169.112-.31.636-.982.87-1.468.87-.608 0-1.085-.262-1.357-.617a2 2 0 0 1-.392-1.216c0-1.151.757-2.114 1.879-2.114.805 0 1.328.552 1.328 1.113a.6.6 0 0 1-.037.243c-.028.056-.16.066-.552.066ZM98.517 35.896c0-1.543-.682-3.208-2.469-3.208-.972 0-2.235.664-2.235 2.712 0 1.384.673 3.18 2.516 3.18 1.122 0 2.188-.842 2.188-2.684m-5.639-.197c0-1.87 1.403-3.3 3.33-3.3 2.16 0 3.245 1.561 3.245 3.207 0 1.89-1.44 3.264-3.246 3.264-2.076 0-3.329-1.487-3.329-3.17M101.22 37.776c0 .299.094.412.28.561.189.141.478.206.675.206.767 0 1.216-.711 1.216-1.683 0-.749-.421-1.506-1.263-1.506-.402 0-.692.15-.795.262-.084.103-.112.243-.112.552Zm-.691-1.739c0-.365 0-.412-.253-.58l-.084-.057c-.037-.037-.037-.14.01-.168.243-.103.682-.327.925-.505.057 0 .094.019.112.066-.018.168-.037.309-.037.43 0 .065.019.122.085.122.12-.057.71-.44 1.309-.44.944 0 1.552.767 1.552 1.711 0 1.3-.954 2.236-2.282 2.236-.168 0-.43-.019-.514-.038-.084.019-.131.065-.131.262v.982c0 .664.018.748.355.795l.365.047c.066.046.047.205-.018.234a23 23 0 0 0-1.048-.029c-.337 0-.617.01-.88.029-.064-.029-.083-.188-.018-.234l.196-.028c.346-.047.356-.14.356-.814ZM106.178 36.046c.692 0 .898-.037.973-.094.028-.018.056-.055.056-.177 0-.262-.178-.59-.72-.59-.552 0-1.03.506-1.04.814 0 .019 0 .047.067.047Zm-.58.28c-.243 0-.252.019-.252.253 0 .945.55 1.749 1.552 1.749.309 0 .57-.093.86-.458.094-.028.159.028.169.112-.31.636-.982.87-1.468.87-.608 0-1.085-.262-1.357-.617a2 2 0 0 1-.392-1.216c0-1.151.757-2.114 1.88-2.114.804 0 1.327.552 1.327 1.113a.6.6 0 0 1-.037.243c-.028.056-.16.066-.552.066ZM108.909 36.037c0-.365 0-.411-.253-.58l-.084-.056c-.037-.037-.037-.14.01-.168.215-.075.71-.318.944-.46.047.01.075.029.075.067v.542q0 .07.028.085c.328-.272.683-.562 1.029-.562.234 0 .42.15.42.374a.415.415 0 0 1-.402.43c-.093 0-.14-.028-.205-.065a.77.77 0 0 0-.412-.15.41.41 0 0 0-.336.187c-.094.132-.122.403-.122.72v1.273c0 .673.019.785.374.813l.337.028c.066.047.047.206-.02.234a22 22 0 0 0-1.037-.028c-.337 0-.617.009-.861.028-.065-.028-.084-.187-.018-.234l.178-.028c.346-.056.355-.14.355-.813ZM112.64 38.43c.187 0 .477-.14.57-.233.113-.112.113-.243.122-.44l.02-.551c0-.103-.039-.122-.095-.122s-.215.037-.384.093c-.55.188-.823.328-.823.693 0 .159.113.56.59.56m.58-1.645c.14-.047.16-.131.16-.271l.008-.43c.01-.347-.103-.814-.683-.814-.262 0-.58.13-.598.42-.009.15-.019.262-.094.319-.14.112-.393.177-.532.177-.085 0-.132-.047-.132-.131 0-.486 1.057-1.15 1.74-1.15.673 0 1.001.393.973 1.094l-.057 1.627c-.018.43.066.814.431.814a.54.54 0 0 0 .233-.056c.047-.028.094-.065.122-.065.038 0 .065.055.065.12 0 .048-.327.413-.785.413a.75.75 0 0 1-.608-.29c-.038-.056-.094-.131-.15-.131-.065 0-.178.084-.364.187-.206.112-.412.234-.674.234-.27 0-.495-.075-.655-.215a.88.88 0 0 1-.289-.655c0-.365.177-.58.776-.795ZM116.372 35.429c-.16 0-.168.028-.168.224v1.749c0 .543.065 1.038.683 1.038a.7.7 0 0 0 .252-.047c.084-.028.206-.131.234-.131.075 0 .112.103.093.16-.168.196-.505.43-.982.43-.804 0-.972-.45-.972-1.01V35.7c0-.253-.01-.271-.197-.271h-.262c-.056-.037-.065-.141-.028-.196.272-.085.505-.206.599-.29.12-.113.3-.365.393-.552.046-.02.159-.02.196.047v.42c0 .169.009.178.168.178h1.039c.112.084.093.337.009.393ZM119.16 33.371c0 .337-.235.486-.497.486a.46.46 0 0 1-.477-.467c0-.309.225-.505.505-.505.281 0 .468.224.468.486m-.776 2.665c0-.364 0-.41-.253-.579l-.084-.057c-.038-.037-.038-.14.01-.168.215-.075.748-.318.963-.458.046 0 .084.02.093.056-.019.327-.037.776-.037 1.16v1.683c0 .673.018.767.355.813l.197.03c.065.045.047.204-.019.233a13 13 0 0 0-.879-.029c-.337 0-.618.01-.88.03-.065-.03-.083-.189-.018-.235l.196-.029c.347-.046.356-.14.356-.813ZM121.984 35.186c-.617 0-1.075.589-1.075 1.618 0 .85.383 1.767 1.206 1.767s1.076-.86 1.076-1.58c0-.795-.318-1.805-1.207-1.805m2.01 1.655c0 1.169-.803 2.01-1.973 2.01-1.075 0-1.917-.757-1.917-1.926 0-1.178.889-2.02 1.992-2.02 1.048 0 1.899.786 1.899 1.936M125.145 36.037c0-.365 0-.411-.252-.58l-.085-.056c-.037-.037-.037-.14.01-.168.215-.075.748-.318.935-.46.037 0 .084.02.102.067-.018.215-.018.355-.018.439 0 .056.037.103.103.103.393-.243.832-.477 1.309-.477.776 0 1.095.533 1.095 1.16v1.609c0 .673.018.767.355.813l.205.028c.066.047.047.206-.018.234a13 13 0 0 0-.88-.028c-.336 0-.616.009-.87.028-.065-.028-.083-.187-.018-.234l.178-.028c.346-.056.355-.14.355-.813V36.28c0-.533-.243-.926-.88-.926-.354 0-.663.15-.794.327-.122.16-.14.29-.14.562v1.43c0 .674.018.758.356.814l.168.028c.065.047.046.206-.02.234a11 11 0 0 0-.85-.028c-.337 0-.617.009-.88.028-.065-.028-.083-.187-.018-.234l.197-.028c.346-.046.355-.14.355-.813ZM131.608 35.073c.084.206.149.505.149.758-.037.065-.177.083-.224.028-.16-.412-.44-.683-.823-.683-.365 0-.598.234-.598.571 0 .383.392.59.72.776.495.28.954.598.954 1.262 0 .711-.655 1.067-1.347 1.067-.44 0-.767-.094-1.001-.28-.075-.179-.131-.637-.112-.946.047-.056.168-.065.215-.009.159.514.458.963.99.963.338 0 .628-.196.628-.598 0-.43-.374-.664-.72-.86-.543-.309-.926-.637-.926-1.15 0-.684.56-1.067 1.272-1.067.393 0 .739.093.823.168M60.115 47.784c.187 0 .477-.14.57-.234.113-.112.113-.243.122-.44l.02-.551c0-.103-.039-.122-.095-.122s-.215.037-.383.093c-.552.188-.823.328-.823.693 0 .159.112.56.59.56m.58-1.645c.14-.047.158-.131.158-.271l.01-.43c.008-.347-.104-.814-.684-.814-.262 0-.58.13-.598.42-.009.15-.019.262-.094.319-.14.112-.393.177-.533.177-.084 0-.13-.047-.13-.131 0-.486 1.056-1.15 1.74-1.15.672 0 1 .393.971 1.094l-.056 1.627c-.018.43.066.814.431.814a.54.54 0 0 0 .233-.056c.047-.028.094-.065.122-.065.037 0 .065.055.065.12 0 .048-.327.413-.785.413a.75.75 0 0 1-.608-.29c-.038-.056-.094-.131-.15-.131-.065 0-.177.084-.364.187-.206.112-.412.234-.674.234-.27 0-.495-.075-.655-.215a.88.88 0 0 1-.289-.655c0-.365.177-.58.776-.795ZM63.08 45.39c0-.365 0-.412-.253-.58l-.084-.056c-.037-.037-.037-.14.01-.168.215-.075.748-.318.935-.46a.11.11 0 0 1 .103.067c-.019.215-.019.355-.019.439 0 .056.037.103.103.103.393-.243.832-.477 1.31-.477.775 0 1.093.533 1.093 1.16v1.609c0 .673.02.767.356.813l.205.028c.066.047.047.206-.018.234a13 13 0 0 0-.879-.028c-.337 0-.618.009-.87.028-.066-.028-.084-.187-.019-.234l.178-.028c.346-.056.355-.14.355-.813v-1.394c0-.533-.243-.926-.879-.926-.355 0-.664.15-.795.327-.12.16-.14.29-.14.562v1.43c0 .674.02.758.355.814l.17.028c.064.047.045.206-.02.234a11 11 0 0 0-.85-.028c-.338 0-.618.009-.88.028-.066-.028-.084-.187-.019-.234l.197-.028c.346-.046.355-.14.355-.813ZM70.254 45.305c0-.187-.037-.27-.103-.364a.97.97 0 0 0-.785-.394c-.852 0-1.291.74-1.291 1.553 0 .851.477 1.655 1.393 1.655.253 0 .57-.112.72-.262.057-.056.066-.196.066-.346Zm.692 1.403c0 .74.009 1.085.27 1.085.104 0 .263-.047.403-.094.066.02.075.253-.01.3-.392.056-.972.196-1.234.3-.055 0-.103-.029-.103-.076v-.159c0-.14 0-.252-.018-.29h-.037c-.412.281-.73.43-1.18.43-1.037 0-1.73-.813-1.73-1.795 0-1.31.992-2.15 2.264-2.15.318 0 .524.045.627.083.047 0 .056-.057.056-.13v-1.414c0-.55-.01-.607-.29-.776l-.094-.056c-.046-.028-.046-.159 0-.187.234-.075.674-.215 1.01-.393.038 0 .075.02.094.057-.01.28-.028.748-.028 1.16ZM75.856 44.65c0 .169 0 .272.028.31.028.027.169.046.645.046.337 0 .693-.037.964-.243.252-.196.467-.523.467-1.16 0-.738-.458-1.44-1.496-1.44-.58 0-.608.038-.608.299Zm-.767-1.337c0-.888-.028-1.047-.411-1.094l-.3-.037c-.065-.047-.065-.197.01-.234a23 23 0 0 1 2.085-.075c.58 0 1.132.047 1.562.28.449.235.777.655.777 1.31 0 .889-.702 1.375-1.17 1.562-.046.056 0 .149.047.225.748 1.206 1.244 1.954 1.88 2.487.159.14.393.243.645.262.047.019.056.094.01.13a1.5 1.5 0 0 1-.412.048c-.795 0-1.272-.234-1.936-1.18-.243-.345-.627-.99-.917-1.411-.14-.206-.29-.3-.664-.3-.42 0-.44.01-.44.206v1.179c0 .982.02 1.094.562 1.169l.197.028c.056.047.037.206-.02.234a23 23 0 0 0-2.281 0c-.056-.028-.075-.168-.02-.234l.235-.028c.543-.065.56-.187.56-1.17ZM81.206 46.699c0 .645.159 1.075.87 1.075.252 0 .552-.102.757-.28.122-.112.187-.253.187-.543v-1.534c0-.607-.065-.626-.346-.738l-.121-.047c-.066-.037-.066-.168.009-.206.374-.01.889-.074 1.094-.168.047.009.075.028.084.065a9 9 0 0 0-.027.814v1.57c0 .74.027 1.02.289 1.02.113 0 .234-.018.365-.046.056.046.066.234-.01.27-.364.076-.906.169-1.224.347a.13.13 0 0 1-.113-.066v-.383c0-.084-.028-.131-.084-.131-.281.178-.738.487-1.29.487-.823 0-1.132-.412-1.132-1.17v-1.561c0-.59 0-.674-.28-.795l-.113-.047c-.056-.047-.047-.177.019-.206a3.3 3.3 0 0 0 1-.168c.057.009.085.028.094.065a7 7 0 0 0-.028.814ZM85.33 45.39c0-.365 0-.412-.252-.58l-.085-.056c-.037-.037-.037-.14.01-.168.215-.075.711-.318.944-.46.047.01.075.029.075.067v.542q0 .07.028.085c.328-.272.683-.562 1.03-.562.233 0 .42.15.42.374a.416.416 0 0 1-.403.43c-.093 0-.14-.028-.205-.065a.77.77 0 0 0-.412-.15.42.42 0 0 0-.336.187c-.094.132-.122.403-.122.72v1.273c0 .673.02.785.374.813l.337.028c.066.047.047.206-.019.234a22 22 0 0 0-1.038-.028c-.337 0-.617.009-.86.028-.066-.028-.085-.187-.019-.234l.178-.028c.346-.056.355-.14.355-.813ZM89.062 47.784c.187 0 .477-.14.57-.234.113-.112.113-.243.122-.44l.019-.551c0-.103-.038-.122-.094-.122s-.215.037-.383.093c-.552.188-.823.328-.823.693 0 .159.112.56.589.56m.58-1.645c.14-.047.159-.131.159-.271l.009-.43c.01-.347-.103-.814-.683-.814-.261 0-.58.13-.598.42-.01.15-.02.262-.094.319-.14.112-.392.177-.533.177-.084 0-.13-.047-.13-.131 0-.486 1.056-1.15 1.739-1.15.673 0 1 .393.973 1.094l-.057 1.627c-.018.43.066.814.43.814a.54.54 0 0 0 .234-.056c.047-.028.094-.065.122-.065.038 0 .066.055.066.12 0 .048-.328.413-.786.413a.75.75 0 0 1-.608-.29c-.037-.056-.094-.131-.15-.131-.065 0-.178.084-.364.187-.206.112-.412.234-.674.234-.271 0-.495-.075-.654-.215a.87.87 0 0 1-.29-.655c0-.365.177-.58.776-.795ZM92.625 47.026c0 .673.02.767.355.813l.225.03c.065.045.047.204-.019.233a14 14 0 0 0-1.805 0c-.065-.029-.084-.188-.019-.234l.215-.029c.347-.046.356-.14.356-.813V42.8c0-.552-.009-.608-.29-.777l-.093-.056c-.047-.028-.047-.159 0-.187.233-.075.673-.215 1.01-.392.037 0 .074.018.093.056-.009.28-.028.748-.028 1.16ZM97.536 46.456c0 .495.028.795.187 1.019.206.29.56.384 1.15.384 1.815 0 2.628-1.188 2.628-2.928 0-1.028-.495-2.768-2.946-2.768-.551 0-.851.075-.925.13-.076.057-.094.29-.094.712Zm-.767-3.34c0-.654-.047-.85-.44-.906l-.205-.028c-.075-.047-.084-.197.009-.234a39 39 0 0 1 2.347-.075c.786 0 1.45.056 2.058.28 1.262.459 1.899 1.525 1.899 2.759 0 1.189-.571 2.208-1.637 2.788-.608.327-1.375.449-2.095.449-.6 0-1.197-.075-1.524-.075-.393 0-.73.009-1.17.028-.056-.028-.074-.178-.018-.234l.215-.028c.542-.075.56-.187.56-1.17ZM104.513 45.399c.692 0 .898-.037.973-.094.028-.018.055-.055.055-.177 0-.262-.177-.59-.72-.59-.551 0-1.028.506-1.038.814 0 .019 0 .047.066.047Zm-.58.28c-.243 0-.253.02-.253.253 0 .945.552 1.749 1.553 1.749.308 0 .57-.093.86-.458.094-.028.159.028.169.112-.31.636-.982.87-1.47.87-.606 0-1.083-.262-1.355-.617a2 2 0 0 1-.392-1.216c0-1.151.757-2.114 1.88-2.114.804 0 1.327.552 1.327 1.113a.6.6 0 0 1-.037.243c-.028.056-.16.066-.552.066ZM107.094 45.315c-.14-.346-.225-.646-.561-.692l-.187-.03c-.056-.073-.047-.204.028-.232a12 12 0 0 0 1.637 0c.065.037.074.187.009.233l-.112.019c-.29.047-.3.094-.206.374.215.646.486 1.3.702 1.787.083.187.121.27.149.299.037-.028.103-.16.178-.355.121-.32.439-1.132.533-1.375.131-.328.168-.524.168-.58 0-.084-.056-.122-.168-.14l-.215-.03c-.057-.064-.047-.195.019-.232q.434.027.701.028c.234 0 .393-.01.655-.028.065.037.074.178.018.233l-.14.019c-.327.047-.411.29-.683.814-.131.253-.711 1.609-.86 1.992-.094.234-.187.449-.309.767-.018.028-.056.037-.093.037-.047 0-.094-.01-.122-.037a11 11 0 0 0-.356-.973ZM112.014 45.399c.692 0 .897-.037.973-.094.027-.018.056-.055.056-.177 0-.262-.178-.59-.72-.59-.552 0-1.03.506-1.038.814 0 .019 0 .047.065.047Zm-.58.28c-.243 0-.253.02-.253.253 0 .945.552 1.749 1.553 1.749.309 0 .57-.093.86-.458.094-.028.159.028.169.112-.31.636-.982.87-1.468.87-.608 0-1.085-.262-1.357-.617a2 2 0 0 1-.392-1.216c0-1.151.757-2.114 1.879-2.114.805 0 1.328.552 1.328 1.113a.6.6 0 0 1-.037.243c-.028.056-.16.066-.552.066ZM115.343 47.026c0 .673.018.767.355.813l.225.03c.065.045.047.204-.019.233a14 14 0 0 0-1.805 0c-.066-.029-.084-.188-.019-.234l.215-.029c.347-.046.356-.14.356-.813V42.8c0-.552-.009-.608-.29-.777l-.094-.056c-.046-.028-.046-.159 0-.187.234-.075.674-.215 1.01-.392.038 0 .075.018.094.056-.01.28-.028.748-.028 1.16ZM118.252 44.539c-.617 0-1.075.589-1.075 1.618 0 .85.383 1.767 1.206 1.767s1.075-.86 1.075-1.58c0-.795-.318-1.805-1.206-1.805m2.01 1.655c0 1.169-.804 2.01-1.973 2.01-1.075 0-1.917-.757-1.917-1.926 0-1.178.889-2.02 1.992-2.02 1.048 0 1.899.786 1.899 1.936M121.984 47.129c0 .3.094.412.28.56.188.142.478.207.674.207.767 0 1.216-.711 1.216-1.683 0-.75-.421-1.506-1.263-1.506-.402 0-.692.15-.795.262-.084.103-.112.243-.112.552Zm-.692-1.74c0-.364 0-.411-.253-.58l-.083-.056c-.038-.037-.038-.14.009-.168a5.6 5.6 0 0 0 .926-.505c.056 0 .093.019.112.066-.02.168-.037.309-.037.43 0 .065.018.122.084.122.12-.057.71-.44 1.309-.44.945 0 1.553.767 1.553 1.71 0 1.3-.954 2.237-2.283 2.237-.168 0-.43-.02-.514-.038-.084.019-.131.065-.131.262v.982c0 .664.019.748.355.795l.366.047c.065.046.046.205-.02.234-.448-.02-.72-.03-1.047-.03-.337 0-.617.01-.88.03-.065-.03-.083-.188-.018-.234l.196-.028c.347-.047.356-.14.356-.814ZM131.018 45.67c0-.636-.28-.963-.87-.963-.355 0-.645.159-.776.327-.112.14-.14.233-.14.561v1.431c0 .673.018.767.355.813l.196.029c.066.046.047.205-.019.234a12.5 12.5 0 0 0-1.73 0c-.065-.029-.084-.188-.018-.234l.168-.029c.346-.055.356-.14.356-.813V45.67c0-.627-.28-.963-.86-.963-.384 0-.646.168-.786.336-.094.112-.14.234-.14.533v1.45c0 .673.018.758.355.813l.168.029c.065.046.047.205-.019.234a13.401 13.401 0 0 0-1.758 0c-.065-.029-.084-.188-.019-.234l.225-.029c.346-.046.355-.14.355-.813v-1.637c0-.364 0-.411-.252-.579l-.084-.057c-.038-.037-.038-.14.01-.168.214-.075.747-.318.934-.458.037 0 .085.019.103.065-.018.215-.018.356-.018.44 0 .056.037.103.102.103.355-.253.795-.477 1.244-.477.468 0 .73.168.991.552.084.018.15-.019.234-.075.374-.262.833-.477 1.272-.477.748 0 1.113.514 1.113 1.159v1.609c0 .673.02.767.355.813l.225.029c.065.046.046.205-.019.234-.308-.019-.58-.029-.907-.029-.337 0-.589.01-.85.029-.066-.029-.085-.188-.02-.234l.17-.029c.345-.055.354-.14.354-.813ZM134.208 45.399c.692 0 .898-.037.973-.094.027-.018.056-.055.056-.177 0-.262-.178-.59-.72-.59-.552 0-1.03.506-1.04.814 0 .019 0 .047.067.047Zm-.58.28c-.243 0-.253.02-.253.253 0 .945.552 1.749 1.553 1.749.309 0 .57-.093.86-.458.094-.028.159.028.169.112-.31.636-.982.87-1.468.87-.608 0-1.085-.262-1.356-.617a2 2 0 0 1-.393-1.216c0-1.151.757-2.114 1.879-2.114.805 0 1.328.552 1.328 1.113a.6.6 0 0 1-.037.243c-.028.056-.16.066-.551.066ZM136.939 45.39c0-.365 0-.412-.253-.58l-.083-.056c-.038-.037-.038-.14.009-.168.215-.075.748-.318.935-.46a.11.11 0 0 1 .103.067c-.02.215-.02.355-.02.439 0 .056.038.103.104.103.393-.243.833-.477 1.31-.477.775 0 1.094.533 1.094 1.16v1.609c0 .673.018.767.355.813l.206.028c.065.047.046.206-.02.234a13 13 0 0 0-.878-.028c-.337 0-.617.009-.87.028-.065-.028-.084-.187-.02-.234l.179-.028c.346-.056.356-.14.356-.813v-1.394c0-.533-.244-.926-.88-.926-.355 0-.664.15-.794.327-.122.16-.141.29-.141.562v1.43c0 .674.019.758.356.814l.168.028c.065.047.047.206-.02.234a11 11 0 0 0-.85-.028c-.336 0-.617.009-.88.028-.065-.028-.083-.187-.018-.234l.197-.028c.346-.046.355-.14.355-.813ZM142.522 44.782c-.159 0-.169.028-.169.224v1.749c0 .543.066 1.038.683 1.038a.7.7 0 0 0 .253-.046c.084-.03.206-.132.234-.132.074 0 .112.103.093.16-.168.196-.505.43-.982.43-.804 0-.972-.45-.972-1.01v-2.142c0-.253-.01-.271-.197-.271h-.262c-.056-.037-.065-.141-.028-.196.271-.085.505-.206.6-.29.12-.113.298-.365.392-.552.046-.02.158-.02.196.047v.42c0 .169.01.178.168.178h1.038c.113.084.094.337.01.393ZM11.043 39.543c0 .316.019.763.204.956.185.202.477.246.77.246.866 0 1.528-.35 1.528-1.228 0-.693-.39-1.5-1.937-1.5-.526 0-.565.052-.565.228Zm0-2.035c0 .246.01.263.506.246.993-.036 1.529-.299 1.529-1.123 0-.86-.711-1.184-1.451-1.184-.214 0-.36.017-.448.052-.097.026-.136.071-.136.23Zm-.8-1.166c0-.65-.044-.822-.482-.856l-.305-.022c-.05-.039-.036-.215.01-.219.525-.047 1.187-.07 2.093-.07.613 0 1.198.044 1.636.245.418.184.74.535.74 1.097 0 .631-.41.956-.994 1.201 0 .088.079.115.186.132.525.088 1.304.526 1.304 1.465 0 1.017-.837 1.702-2.59 1.702-.282 0-.76-.026-1.168-.026-.43 0-.76.017-1.12.026-.058-.026-.078-.167-.02-.22l.176-.026c.516-.079.535-.175.535-1.096ZM21.198 37.205c0-.795-.017-.922-.507-.959l-.208-.015c-.05-.03-.033-.165.016-.188.416.015.699.023 1.048.023.333 0 .616-.008 1.032-.023.05.023.066.158.016.188l-.208.015c-.49.037-.507.164-.507.96v2.666c0 .794.017.9.507.951l.208.023c.05.03.034.165-.016.187a27 27 0 0 0-1.032-.022c-.35 0-.632.007-1.048.022-.05-.022-.066-.142-.016-.187l.208-.023c.49-.052.507-.157.507-.95ZM25.812 39.887c0 .787.016.899.467.937l.25.022c.047.03.031.165-.016.187a28 28 0 0 0-1.02-.022c-.312 0-.585.007-1.084.022-.046-.022-.062-.149 0-.187l.281-.022c.444-.038.483-.15.483-.937v-3.349c0-.232 0-.24-.234-.24h-.428c-.335 0-.764.015-.959.188-.187.165-.265.329-.35.516-.063.046-.172.008-.203-.052.125-.337.242-.816.296-1.116.024-.015.125-.023.148 0 .047.239.304.232.663.232h3.155c.421 0 .491-.015.608-.21.039-.015.125-.007.14.023-.085.307-.14.914-.117 1.138-.031.06-.163.06-.202.016-.023-.188-.078-.465-.195-.547-.179-.128-.475-.188-.904-.188h-.553c-.234 0-.226.008-.226.255ZM29.152 37.205c0-.795-.017-.922-.507-.959l-.208-.015c-.05-.03-.033-.165.017-.188.415.015.698.023 1.048.023.332 0 .615-.008 1.03-.023.05.023.067.158.018.188l-.21.015c-.49.037-.506.164-.506.96v2.666c0 .794.017.9.507.951l.209.023c.049.03.033.165-.017.187a27 27 0 0 0-1.031-.022c-.35 0-.633.007-1.048.022-.05-.022-.067-.142-.017-.187l.208-.023c.49-.052.507-.157.507-.95ZM32.879 41.11c-.743 0-1.211-.195-1.38-.277-.106-.165-.22-.697-.238-1.049.044-.053.177-.068.212-.023.133.382.495 1.116 1.52 1.116.744 0 1.106-.41 1.106-.86 0-.33-.08-.698-.725-1.05l-.84-.464c-.442-.248-.955-.675-.955-1.289 0-.712.655-1.289 1.804-1.289.274 0 .592.045.822.098.115.03.239.044.309.044.08.18.16.6.16.915-.036.045-.177.067-.222.022-.114-.36-.353-.847-1.202-.847-.866 0-1.052.487-1.052.832 0 .435.424.75.752.922l.707.374c.557.292 1.105.727 1.105 1.44 0 .822-.734 1.385-1.883 1.385M37.329 38.591c-.387 0-.403.015-.403.24v1.056c0 .787.04.892.492.937l.233.022c.049.03.033.165-.016.187a28 28 0 0 0-1.024-.022c-.346 0-.62.015-.935.022-.048-.022-.064-.142-.016-.187l.137-.022c.452-.075.468-.15.468-.937V37.19c0-.787-.056-.914-.476-.944l-.21-.015c-.048-.03-.032-.165.016-.187.396.007.67.022 1.016.022.315 0 .589-.008.936-.022.048.022.064.157.016.187l-.153.015c-.468.045-.484.157-.484.944v.861c0 .233.016.24.403.24h2.306c.387 0 .403-.007.403-.24v-.861c0-.787-.016-.899-.492-.944l-.153-.015c-.048-.03-.032-.165.016-.187.37.014.645.022.976.022.314 0 .588-.008.95-.022.05.022.066.157.017.187l-.17.015c-.467.045-.483.157-.483.944v2.697c0 .787.016.885.484.937l.193.022c.049.03.033.165-.016.187a21.972 21.972 0 0 0-1.951 0c-.048-.022-.064-.142-.016-.187l.153-.022c.492-.075.492-.15.492-.937v-1.056c0-.225-.016-.24-.403-.24ZM5.63 42.68c.662-.516 1.507-.77 2.45-.77.49 0 1.18.1 1.608.218.109.028.172.046.254.036.009.209.054.779.127 1.33-.045.064-.182.073-.245.019-.136-.616-.545-1.321-1.861-1.321-1.39 0-2.57.877-2.57 2.749 0 1.9 1.208 2.95 2.697 2.95 1.17 0 1.688-.76 1.897-1.294.064-.045.2-.027.236.036-.063.47-.3 1.068-.435 1.24a2 2 0 0 0-.318.09c-.2.072-.854.208-1.435.208-.816 0-1.597-.163-2.26-.606-.726-.498-1.29-1.321-1.29-2.488 0-1.004.455-1.863 1.145-2.397M15.339 45.763c0-1.236-.574-2.57-2.077-2.57-.818 0-1.88.532-1.88 2.173 0 1.11.566 2.548 2.116 2.548.944 0 1.84-.675 1.84-2.15m-4.743-.158c0-1.498 1.18-2.645 2.8-2.645 1.818 0 2.73 1.251 2.73 2.57 0 1.513-1.211 2.615-2.73 2.615-1.746 0-2.8-1.19-2.8-2.54M25 44.961c0-.464-.015-1.326-.15-1.55-.055-.09-.2-.143-.397-.158l-.2-.015c-.046-.053-.03-.15.017-.18a18 18 0 0 0 1.74 0c.063.038.055.135.016.18l-.191.015c-.2.015-.35.082-.397.18-.111.247-.111 1.11-.111 1.528v.847c0 .652-.112 1.341-.556 1.791-.342.352-.93.546-1.517.546-.548 0-1.096-.097-1.485-.412-.421-.329-.62-.876-.62-1.768v-1.769c0-.778-.016-.906-.477-.943l-.198-.015c-.048-.03-.032-.158.016-.18.397.015.667.022.985.022.325 0 .587-.007.977-.022.047.022.063.15.015.18l-.19.015c-.461.037-.477.165-.477.943v1.62c0 1.206.397 2 1.612 2 1.152 0 1.589-.854 1.589-1.993ZM34.952 46.788c0 .272.017.658.184.825.167.174.43.212.693.212.782 0 1.379-.303 1.379-1.06 0-.597-.351-1.294-1.747-1.294-.474 0-.51.046-.51.197Zm0-1.756c0 .212.009.227.456.212.896-.03 1.379-.257 1.379-.969 0-.742-.641-1.021-1.308-1.021-.194 0-.325.015-.405.045-.087.023-.122.061-.122.197Zm-.72-1.006c0-.56-.035-.704-.43-.735l-.281-.027c-.032-.028-.05-.18.009-.184a25 25 0 0 1 1.887-.061c.553 0 1.08.038 1.475.212.377.159.667.462.667.946 0 .545-.37.825-.895 1.037 0 .075.07.098.166.113.475.076 1.177.454 1.177 1.264 0 .878-.755 1.468-2.336 1.468-.254 0-.684-.023-1.053-.023-.386 0-.684.015-1.01.023-.052-.023-.07-.144-.017-.189l.158-.023c.465-.068.483-.151.483-.946ZM16.896 38.384c-.151 0-.453.056-.453-.144v-1.437c0-.562.018-.643.693-.643.79 0 1.278.401 1.278 1.14 0 .321-.115.618-.408.82-.337.232-.702.264-1.11.264m3.03 2.462-.207-.018q-.063-.007-.115-.015c-.304-.054-.426-.325-.57-.577l-.718-1.252c-.124-.209-.258-.49-.542-.53.737-.088 1.403-.514 1.403-1.244 0-.844-.835-1.22-1.678-1.22-.506 0-.968.013-1.483.013-.284 0-.622-.014-.906-.014-.157 0-.16.033-.16.121 0 .13.056.094.223.103.6.034.577.146.577.66v3.283c0 .47.04.61-.453.655l-.118.012-.21.021c-.05.045-.033.165.017.187l.308-.01c.273-.009.547-.03.82-.03.274 0 .537.021.807.03q.143.003.308.01c.05-.023.067-.143.017-.188l-.21-.02-.117-.01c-.498-.035-.468-.175-.468-.657V38.92c0-.073-.01-.265.044-.322.045-.048.125-.04.196-.04.675 0 .666.065.986.626l.869 1.566c.072.121.125.273.303.273h.755l.307.01c.049-.022.066-.142.016-.187M17.059 44.223c0-.786-.017-.906-.536-.944l-.206-.015c-.05-.03-.033-.164.017-.187.46.015.742.022 1.07.022.323 0 .603-.007 1.015-.022.049.023.066.157.016.187l-.197.015c-.487.038-.503.158-.503.944v2.608c0 .47.025.666.173.809.09.082.247.172.898.172.7 0 .874-.03 1.006-.097.165-.09.379-.36.544-.742.049-.037.206-.007.206.045 0 .083-.231.847-.346 1.049a69 69 0 0 0-2.053-.023h-.758c-.346 0-.61.008-1.071.023-.05-.023-.066-.143-.017-.187l.248-.023c.477-.045.494-.15.494-.936ZM39.138 44.238c0-.794-.016-.921-.494-.96l-.202-.014c-.05-.03-.033-.164.016-.187.405.015.68.022 1.02.022.323 0 .599-.007 1.003-.022.049.023.065.157.016.187l-.202.015c-.478.038-.494.165-.494.959v2.668c0 .794.016.899.494.95l.202.024c.049.029.033.164-.016.187-.404-.015-.68-.023-1.003-.023-.34 0-.615.008-1.02.023-.05-.023-.065-.143-.016-.187l.202-.023c.478-.052.494-.157.494-.951ZM32.671 47.855l-.119-.01c-.086-.01-.162-.022-.223-.088-.105-.11-.096-.429-.096-.556v-3.283c0-.143-.035-.454.07-.565.053-.059.162-.069.26-.074l.112-.008.208-.014c.05-.03.033-.166-.017-.188-.11.004-.212.003-.308.006h-.884c-.097 0-.184 0-.237.103l-1.8 3.752-1.592-3.624c-.053-.128-.06-.23-.228-.23h-.92c-.096-.004-.2-.003-.313-.007-.049.022-.066.158-.016.188l.208.014.12.01c.345.021.367.098.335.461l-.27 3.522c-.024.354-.044.541-.414.575l-.12.015-.209.022c-.05.044-.034.165.017.187l.304-.01c.187-.009.38-.026.57-.026.206 0 .413.02.62.028v.001q.142.003.308.01c.05-.023.066-.143.017-.188l-.209-.022-.115-.01c-.535-.037-.523-.414-.49-.876l.254-3.275h.061l1.723 4.03c.017.056.043.151.131.151.08 0 .105-.087.131-.143l1.941-4.134h.062v3.602c0 .143.017.437-.132.548-.078.058-.33.093-.33.093q-.05.008-.112.014l-.209.023c-.049.045-.033.165.017.187l.304-.01c.282-.008.568-.029.855-.029.206 0 .61.02.61.02.095.003.205.013.316.017.05-.022.067-.142.017-.187ZM44 46.02h-.973c-.034 0-.305.033-.305-.047 0-.023.017-.071.026-.095l.584-1.446c.017-.04.076-.238.144-.238.05 0 .118.206.135.238l.575 1.35c0 .017.059.143.059.176 0 .087-.194.063-.245.063m2.184 1.855-.028-.023q-.061-.007-.113-.015c-.324-.072-.45-.463-.57-.741l-1.667-3.946c-.017-.047-.05-.15-.116-.15-.091 0-.116.11-.14.173l-1.593 3.939c-.058.149-.207.51-.314.62-.083.086-.189.102-.304.113l-.132.014-.196.019c-.05.045-.034.165.016.188l.309-.011c.217-.003.435-.031.654-.031.183 0 .367.02.55.028l.308.01c.05-.021.066-.142.017-.186l-.208-.023-.113-.011c-.192-.021-.43-.056-.43-.266 0-.142.065-.307.115-.432l.248-.59c.123-.283.074-.315.404-.315h1.123c.396 0 .338 0 .512.402l.264.597c.041.102.115.275.115.385 0 .198-.215.21-.417.228 0 0-.067.006-.125.009l-.2.016c-.05.044-.033.164.017.186l.308-.011c.235-.01.471-.027.698-.027.289 0 .578.02.867.028.095.002.015.006.124.01.05-.022.067-.142.017-.187"/><path fill="#fff" d="M13.688 30.796c5.267 0 12.553 2.966 17.839 2.966 3.773 0 7.454-1.007 9.549-2.489a16 16 0 0 0 .224-2.677c0-8.852-7.176-16.028-16.028-16.028S9.244 19.744 9.244 28.596q.002 1.353.218 2.646c.578-.107 2.542-.446 4.226-.446"/><path fill="#a7a9ac" d="m35.626 24.89.634.263 1.405-.98Z"/><path fill="#a7a9ac" d="m12.011 23.795-1.666-.586.084-.204 1.876.625.008-.004.247-.14.1-.063-2.047-.87.087-.214 4.566 1.847.15-.063-4.528-2.206.101-.208 4.8 2.234.065-.034-4.653-2.639.096-.198 6.72 3.656c.054-.102.17-.287.228-.387-2.554-2.4-5.019-4.205-5.019-4.205s2.535 1.698 5.664 3.276a8 8 0 0 1 .298-.355l-5.732-5.046.154-.158 4.626 3.943-4.286-4.293.16-.166 4.813 4.651-4.48-4.972.171-.154 4.141 4.433-3.779-4.76.163-.149 4.843 5.895c.126-.109.23-.19.361-.29-1.465-3.17-3.066-5.75-3.066-5.75s1.703 2.507 4.001 5.132q.21-.119.43-.226l-.026-.016-3.395-6.774.202-.089 2.813 5.39-2.366-5.587.211-.094 2.72 6.115-2.292-6.288.217-.079 2.178 5.662-1.72-5.83.206-.077 2.265 7.232-.004.02.005-.003q.227-.075.458-.138a60 60 0 0 0-.686-6.444s.636 2.945 1.777 6.23q.239-.03.48-.048l-.005-.008h.02l-.012-.016-.61-7.554.221-.006.59 6.05-.103-6.065.231-.008.231 6.688.231-6.688.231.008-.1 6.065.587-6.05.221.006-.61 7.554-.01.016h.002l-.002.003h.01q.237.015.47.044c1.14-3.28 1.774-6.22 1.774-6.22s-.512 2.961-.686 6.428q.234.061.461.136l2.257-7.206.207.076-1.72 5.83 2.178-5.66.216.078-2.29 6.288 2.72-6.115.21.094-2.367 5.585 2.813-5.389.202.09-3.383 6.75.006.002q.21.102.411.216a60 60 0 0 0 3.981-5.11s-1.589 2.562-3.05 5.717q.196.147.382.306l4.787-5.83.164.147-3.78 4.762 4.141-4.434.171.155-4.48 4.972 4.812-4.65.161.165-4.286 4.293 4.626-3.943.154.157-5.662 4.99.003.003q.148.166.288.34c3.11-1.573 5.621-3.255 5.621-3.255s-2.44 1.786-4.982 4.171c.07.116.182.314.246.434l6.624-3.607.096.2-5.288 2.998 5.5-2.56.101.208-5.123 2.496.098.034 5.213-2.108.086.214-4.845 2.061.091.037 3.228-1.076.487-.34.161.123 1.063-.354.083.204-.919.324 1.328 1.013.426.237c-1.708-7.137-8.128-12.443-15.788-12.443-7.796 0-14.307 5.494-15.874 12.821l.06-.029.194-.088.12-.055Z"/><path d="M9.306 31.589s2.395-.478 4.394-.478c5.267 0 12.552 2.965 17.839 2.965 3.878 0 7.66-1.063 9.721-2.615a16.3 16.3 0 0 0-.2-6.615l-2.204-1.23-2.586 1.814-1.739-.677c-.589.297-4.222 2.727-4.222 2.727l-1.395-1.01-1.496-.296-1.995-1.452-2.288 1.57s-2.553 1.483-2.641 1.483-3.08-2.372-3.08-2.372l-1.379-1.452c-.235.148-1.172.578-1.172.578l-.049.013-.907-.28-1.102-.585-3.347 1.518-.06.028a16.3 16.3 0 0 0-.092 6.366"/><path fill="#a7a9ac" d="M52.428 48.075h.378V12.333h-.378Z"/></g></svg>
