<?xml version="1.0" encoding="UTF-8" standalone="no"?>
<!DOCTYPE svg PUBLIC "-//W3C//DTD SVG 1.1//EN" "http://www.w3.org/Graphics/SVG/1.1/DTD/svg11.dtd">
<svg width="100%" height="100%" viewBox="0 0 1000 762" version="1.1" xmlns="http://www.w3.org/2000/svg" xmlns:xlink="http://www.w3.org/1999/xlink" xml:space="preserve" xmlns:serif="http://www.serif.com/" style="fill-rule:evenodd;clip-rule:evenodd;stroke-linejoin:round;stroke-miterlimit:2;">
    <g transform="matrix(1,0,0,1,-1151.26,0)">
        <g transform="matrix(1,0,0,1,1151.26,0)">
            <rect id="Graphic-2" serif:id="Graphic 2" x="0" y="0" width="1000" height="762" style="fill:none;"/>
            <g id="Graphic-21" serif:id="Graphic 2">
                <g id="Flag-Shapes" serif:id="Flag Shapes">
                    <path d="M662,559L662,554C661.944,534.514 653.341,517.666 640,520C601.663,526.706 469.345,642.043 420,660C405.974,665.104 366.075,676.786 355,670C343.756,663.111 333.163,650.843 332.969,635.956C332.709,616.108 337.901,582.061 330,570C310.017,539.495 266.02,578.026 210,610C69.516,690.181 23.447,740.315 24.894,734.849L37.719,627.343C37.719,627.343 264.843,470.098 325,480C355.576,485.033 327.039,540.704 340,575C349.137,599.177 373.702,598.823 400,587.195C466.063,557.984 611.314,419.836 657,440C663.719,442.965 664.622,465.515 662.502,487.462C660.06,512.741 657.698,531.054 677.739,540C712.849,555.673 827.807,461.736 916.616,452.685L907.212,530C887.517,536.212 854.389,546.514 827.71,560C768.858,589.75 709.063,622.815 680,620C670.743,619.103 661.453,618.021 660,610C657.623,596.873 662,559 662,559Z" style="fill:rgb(1,51,102);"/>
                    <g transform="matrix(1,0,0,1,15.0066,-115)">
                        <path d="M660.147,575C660.611,548.805 643.003,531.631 622.993,533C582.643,535.76 414.005,679.88 365.993,691C345.552,695.734 338.045,685.611 336.993,684C319.4,657.038 360.252,606.15 313.993,578C292.565,564.96 245.821,594.205 226.993,601C172.352,620.719 23.687,722.667 24.993,725L39.082,617.033C37.372,612.853 261.54,473.506 324.993,502.276C334.526,506.599 340.105,510.343 341.993,523C345.155,544.191 328.73,575.026 342.993,597C355.308,615.972 370.401,610.199 394.993,592.614C428.415,568.716 465.314,538.893 500.411,515C529.265,495.357 557.415,480.431 576.993,470C590.697,462.699 612.771,456.968 630.993,457C647.782,457.029 659.804,463.408 661.993,467C677.735,492.832 652.59,537.142 668.004,555C688.186,578.382 827.176,477.413 914.993,465L904.993,545C886.674,542.581 741.011,607.767 686.993,638C678.325,642.851 663.043,638.064 661.318,637.56C646.902,633.347 659.662,602.375 660.147,575Z" style="fill:rgb(1,51,102);"/>
                    </g>
                    <g transform="matrix(1,0,0,1,-5.43285,-3.07542)">
                        <path d="M62.006,483.075L69.003,437.038L75.433,384.075C211.697,308.92 335.508,266.414 371.24,299.963C376.839,305.221 379.301,318.841 377.874,327.661C373.915,352.134 368.819,393.075 368.819,393.075C351.843,376.171 341.373,365.216 310.433,370.075C264.981,377.215 217.782,396.278 159.222,426.592C120.639,446.564 97.343,465.943 62.006,483.075" style="fill:rgb(173,0,0);"/>
                    </g>
                    <g transform="matrix(1,0,0,1,-10,-14.3734)">
                        <path d="M84,350.373L99,230.373C193.862,219.165 280.129,222.331 337,263.373C291.538,261.338 256.673,268.526 212,286.373C180.339,299.023 148.23,313.157 84,350.373Z" style="fill:rgb(1,51,102);"/>
                    </g>
                    <g transform="matrix(1,0,0,1,-5,-6.0676)">
                        <path d="M938,337.068L949,254.068C906.984,253.347 826.921,290.693 706,357C706,357 691.403,429.188 698,438.068C701.625,442.947 729.881,426.176 747,418.068C791.541,396.971 867.951,354.886 931,338.068C934.38,337.166 934.716,337.832 938,337.068Z" style="fill:rgb(173,0,0);"/>
                    </g>
                    <g transform="matrix(1.03641,0,0,1.03318,-43.513,-24.4785)">
                        <path d="M956.052,220.826C931.966,217.916 859.595,244.085 805,274L972.115,93.638L956.052,220.826Z" style="fill:rgb(1,51,102);"/>
                    </g>
                    <g transform="matrix(1,0,0,1,-8.48206,4.21924)">
                        <path d="M972.482,19.781L906.482,39.781L708.482,260L708.482,275.781L728.482,270.269L748.482,269.957C810.194,187.908 885.801,104.419 972.482,19.781Z" style="fill:rgb(173,0,0);"/>
                    </g>
                    <g transform="matrix(1,0,0,1,-14.8717,-11.7583)">
                        <path d="M110.872,205.758L117,164C259.384,155.34 371.776,184.513 394.872,256.758C397.408,264.691 396.495,272.911 394.872,281.758C376.37,257.789 371.464,247.411 314.872,224.62C258.104,201.757 188.064,199.472 110.872,205.758Z" style="fill:rgb(173,0,0);"/>
                    </g>
                    <g transform="matrix(1,0,0,1,-2.85427,-9.19706)">
                        <path d="M386.086,359.966C386.086,359.966 356.545,469.25 364.086,481.966C375.161,500.64 392.945,495.53 416.086,477.581C430.196,466.637 451.529,447.839 472.854,433.689C529.367,396.193 580.15,353.1 640,345C668.273,341.174 678.661,357.377 688.818,352.306L694.142,314.197C660.847,285.666 676.609,274.384 683.436,239.966C633.79,242.772 626.682,240.548 614.016,193.891C613.112,241.445 586.287,265.038 549.984,214.267C516.934,276.796 491.476,288.891 481.086,234.966C460.403,300.719 439.245,344.502 421.086,299.966C412.934,331.542 405.917,381.312 386.086,359.966Z" style="fill:rgb(252,186,25);"/>
                    </g>
                    <g transform="matrix(1,0,0,1,-3.27987,-32.2143)">
                        <path d="M650.885,52.214C640.696,111.529 632.482,178.648 633.28,222.214C633.575,238.31 652.663,251.615 658.78,248.214C684.139,234.118 699.28,213.214 699.28,213.214C701.202,217.176 697.371,261.091 703.28,252.214C709.515,242.847 722.664,225.244 749.28,195.214C785.285,154.591 838.535,104.726 833.28,96.452C833.28,96.452 749.224,149.953 730.797,142.214C714.732,135.467 738.163,82.787 726,64C710.086,39.421 680.963,44.536 650.885,52.214Z" style="fill:rgb(1,51,102);"/>
                    </g>
                    <g transform="matrix(1,0,0,1,-5.34457,-13)">
                        <path d="M598.303,218.44C601.296,203.862 617.345,55 617.345,55C617.345,55 529.755,108.006 518.345,119L503.345,244C503.345,244 516.109,242.765 525.345,227C533.535,213.018 556.345,168 556.345,168C556.345,168 575.791,214.604 580.345,223.381C582.772,228.06 597.243,223.603 598.303,218.44Z" style="fill:rgb(173,0,0);"/>
                    </g>
                    <g transform="matrix(1,0,0,1,-6.44668,-25.8592)">
                        <path d="M186.447,129.908C214.776,131.503 345.338,131.278 385.447,221.859C396.862,247.639 389.463,293.625 391.447,336.859C391.706,342.502 402.758,347.295 403.515,345.859C407.988,337.375 412.925,271.204 413.447,269.859C424.161,278.118 434.819,302.606 440.297,311.131C459.523,300.898 471.997,228.906 476.447,155.859C470.722,153.349 422.966,201.326 404.192,180C390.306,164.226 421.856,103.517 390.218,85.006C348.582,60.647 254.29,98.817 186.447,129.908Z" style="fill:rgb(1,51,102);"/>
                    </g>
                </g>
            </g>
        </g>
    </g>
</svg>
