<svg xmlns="http://www.w3.org/2000/svg" viewBox="0 0 136.25 32.88"><title>Education and Child Care — French</title><g transform="translate(0.0 0.14)"><path data-role="wordmark" fill="#234075" d="M45.57 29.7C45.52 29.7 45.46 29.89 45.44 29.94C45.21 30.54 44.83 30.55 44.23 30.55C43.68 30.55 43.38 30.54 43.38 29.92L43.38 28.73C43.38 28.5 43.45 28.5 43.72 28.5C43.93 28.5 44.29 28.5 44.56 28.56C44.71 28.59 44.77 28.8 44.8 28.99C44.81 29.04 44.83 29.11 44.89 29.11C44.93 29.11 44.98 29.12 44.97 28.99C44.96 28.77 44.95 28.56 44.94 28.35C44.95 28.16 44.96 27.95 44.97 27.76C44.97 27.7 44.93 27.69 44.89 27.69C44.83 27.69 44.81 27.77 44.8 27.81C44.77 28.01 44.74 28.26 44.56 28.28C44.29 28.31 43.93 28.31 43.72 28.31C43.44 28.31 43.38 28.31 43.38 27.98L43.38 26.96C43.38 26.84 43.36 26.69 43.49 26.64C43.6 26.6 43.9 26.6 44.01 26.6C44.25 26.6 44.55 26.6 44.78 26.67C45.01 26.74 45.1 26.86 45.21 27.07L45.31 27.26C45.33 27.31 45.36 27.4 45.42 27.4C45.49 27.4 45.48 27.37 45.48 27.26L45.48 26.67C45.48 26.58 45.52 26.42 45.39 26.42C44.8 26.42 44.22 26.44 43.62 26.44C43.25 26.44 42.5 26.42 42.5 26.42C42.42 26.42 42.33 26.41 42.23 26.41C42.19 26.43 42.18 26.55 42.22 26.57L42.4 26.58C42.43 26.59 42.49 26.59 42.49 26.59C42.85 26.61 42.83 26.77 42.83 27.16L42.83 29.98C42.83 30.38 42.85 30.52 42.49 30.55C42.49 30.55 42.43 30.55 42.39 30.55L42.21 30.57C42.17 30.61 42.18 30.72 42.23 30.73C42.32 30.73 42.47 30.72 42.48 30.72C42.56 30.71 42.68 30.71 42.75 30.71L45.46 30.71C45.51 30.71 45.53 30.71 45.53 30.67L45.64 29.94C45.65 29.88 45.65 29.85 45.66 29.78C45.68 29.71 45.62 29.7 45.57 29.7"/><path data-role="wordmark" fill="#234075" d="M41.86 26.43C41.61 26.45 41.43 26.45 41.14 26.45C40.87 26.45 40.62 26.45 40.36 26.43C40.32 26.46 40.31 26.54 40.35 26.59L40.52 26.6C40.69 26.61 40.81 26.66 40.86 26.74C40.98 26.93 40.99 27.59 40.99 27.99L40.99 28.73C40.99 29.71 40.61 30.45 39.62 30.45C38.58 30.45 38.24 29.76 38.24 28.73L38.24 27.34C38.24 26.67 38.25 26.63 38.65 26.6L38.81 26.59C38.85 26.56 38.84 26.45 38.8 26.43C38.46 26.45 38.24 26.45 37.96 26.45C37.69 26.45 37.45 26.45 37.11 26.43C37.07 26.45 37.06 26.56 37.1 26.59L37.27 26.6C37.66 26.63 37.68 26.67 37.68 27.34L37.68 28.86C37.68 29.62 37.85 30.09 38.21 30.38C38.55 30.65 39.02 30.73 39.49 30.73C39.99 30.73 40.5 30.56 40.79 30.26C41.17 29.87 41.27 29.28 41.27 28.72L41.27 27.99C41.27 27.63 41.27 26.97 41.37 26.76C41.41 26.67 41.54 26.61 41.71 26.6L41.87 26.59C41.9 26.55 41.91 26.47 41.86 26.43"/><path data-role="wordmark" fill="#234075" d="M36.33 28.74C36.33 27.68 35.84 26.55 34.58 26.55C33.9 26.55 33.01 27 33.01 28.4C33.01 29.34 33.48 30.56 34.78 30.56C35.57 30.56 36.33 29.99 36.33 28.74M36.99 28.54C36.99 29.59 36.31 30.4 35.39 30.67C35.38 30.7 35.4 30.72 35.44 30.76C35.71 31.03 35.81 31.09 36.12 31.18C36.37 31.25 36.49 31.25 36.76 31.25C36.83 31.24 37.06 31.21 37.15 31.17C37.19 31.18 37.2 31.24 37.18 31.27C36.97 31.38 36.56 31.47 36.33 31.48C36.01 31.51 35.64 31.45 35.37 31.34C35.24 31.28 35.17 31.24 34.85 30.98C34.63 30.8 34.59 30.77 34.41 30.74C34.23 30.72 34 30.68 33.76 30.59C32.88 30.27 32.35 29.51 32.35 28.6C32.35 27.33 33.34 26.35 34.7 26.35C36.22 26.35 36.99 27.42 36.99 28.54"/><path data-role="wordmark" fill="#234075" d="M31.86 26.6L32.04 26.59C32.08 26.57 32.06 26.45 32.02 26.43C31.66 26.44 31.42 26.45 31.14 26.45C30.84 26.45 30.59 26.44 30.23 26.43C30.19 26.45 30.18 26.57 30.22 26.59L30.4 26.6C30.82 26.64 30.84 26.75 30.84 27.43L30.84 29.72C30.84 30.4 30.82 30.49 30.4 30.54L30.22 30.56C30.18 30.6 30.19 30.7 30.23 30.72C30.59 30.71 30.84 30.7 31.14 30.7C31.42 30.7 31.66 30.71 32.02 30.72C32.06 30.7 32.08 30.58 32.04 30.56L31.86 30.54C31.44 30.49 31.42 30.4 31.42 29.72L31.42 27.43C31.42 26.75 31.44 26.64 31.86 26.6"/><path data-role="wordmark" fill="#234075" d="M29.81 26.43C29.72 26.43 29.55 26.44 29.55 26.44C29.41 26.45 29.23 26.46 29.08 26.46C28.93 26.46 28.78 26.45 28.63 26.44L28.61 26.44C28.53 26.43 28.47 26.43 28.38 26.43C28.34 26.45 28.32 26.56 28.36 26.59L28.54 26.6C28.58 26.61 28.64 26.61 28.64 26.61C29 26.65 28.98 26.8 28.98 27.2L28.98 29.8L26.6 26.68C26.52 26.56 26.47 26.47 26.32 26.43L25.39 26.43L25.38 26.43C25.29 26.43 25.22 26.43 25.12 26.42C25.08 26.44 25.07 26.56 25.11 26.59L25.29 26.6C25.32 26.61 25.32 26.61 25.37 26.61L25.4 26.61C25.76 26.65 25.72 26.8 25.72 27.2L25.72 29.97C25.72 30.36 25.75 30.5 25.39 30.53C25.39 30.53 25.33 30.54 25.29 30.55L25.12 30.56C25.07 30.6 25.09 30.71 25.13 30.73C25.23 30.72 25.39 30.72 25.39 30.72C25.54 30.71 25.66 30.71 25.86 30.69C26.01 30.69 26.15 30.7 26.3 30.71C26.3 30.71 26.46 30.72 26.56 30.72C26.6 30.7 26.61 30.6 26.57 30.56L26.39 30.54C26.36 30.54 26.32 30.54 26.29 30.53C25.94 30.51 25.96 30.36 25.96 29.97L25.96 26.9L28.88 30.62C28.91 30.68 29.01 30.79 29.09 30.79C29.15 30.79 29.21 30.69 29.21 30.66L29.21 27.2C29.21 26.81 29.19 26.65 29.54 26.62C29.57 26.61 29.61 26.61 29.64 26.6L29.82 26.59C29.86 26.57 29.85 26.45 29.81 26.43"/><path data-role="wordmark" fill="#234075" d="M24.7 26.43C24.6 26.43 24.43 26.44 24.43 26.44C24.3 26.45 24.12 26.46 23.97 26.46C23.82 26.46 23.66 26.45 23.52 26.44L23.5 26.44C23.41 26.43 23.36 26.43 23.27 26.43C23.22 26.45 23.21 26.56 23.25 26.59L23.43 26.6C23.47 26.61 23.53 26.61 23.53 26.61C23.89 26.65 23.87 26.8 23.87 27.2L23.87 29.8L21.49 26.68C21.41 26.56 21.35 26.47 21.21 26.43L20.28 26.43L20.27 26.43C20.18 26.43 20.11 26.43 20.01 26.42C19.97 26.44 19.95 26.56 20 26.59L20.18 26.6C20.21 26.61 20.21 26.61 20.26 26.61L20.29 26.61C20.65 26.65 20.61 26.8 20.61 27.2L20.61 29.97C20.61 30.36 20.64 30.5 20.28 30.53C20.28 30.53 20.22 30.54 20.18 30.55L20 30.56C19.96 30.6 19.98 30.71 20.02 30.73C20.11 30.72 20.28 30.72 20.28 30.72C20.43 30.71 20.55 30.71 20.75 30.69C20.9 30.69 21.04 30.7 21.18 30.71C21.18 30.71 21.35 30.72 21.45 30.72C21.49 30.7 21.5 30.6 21.46 30.56L21.28 30.54C21.25 30.54 21.21 30.54 21.18 30.53C20.82 30.51 20.85 30.36 20.85 29.97L20.85 26.9L23.76 30.62C23.8 30.68 23.9 30.79 23.98 30.79C24.04 30.79 24.1 30.69 24.1 30.66L24.1 27.2C24.1 26.81 24.08 26.65 24.43 26.62C24.46 26.61 24.49 26.61 24.53 26.6L24.71 26.59C24.75 26.57 24.74 26.45 24.7 26.43"/><path data-role="wordmark" fill="#234075" fill-rule="evenodd" d="M16.66 28.85C16.65 28.87 16.64 28.92 16.64 28.94C16.64 29 16.87 28.98 16.9 28.98L17.74 28.98C17.78 28.98 17.95 29 17.95 28.92C17.95 28.9 17.9 28.79 17.9 28.77L17.4 27.61C17.39 27.59 17.33 27.41 17.28 27.41C17.23 27.41 17.18 27.58 17.16 27.61L16.66 28.85M19.59 30.55C19.55 30.55 19.52 30.54 19.49 30.54C19.21 30.48 19.1 30.14 19 29.9L17.57 26.51C17.55 26.47 17.53 26.38 17.47 26.38C17.39 26.38 17.37 26.48 17.35 26.53L15.98 29.92C15.93 30.04 15.8 30.36 15.71 30.45C15.64 30.52 15.55 30.54 15.45 30.55C15.45 30.55 15.37 30.55 15.33 30.56L15.17 30.57C15.12 30.61 15.14 30.72 15.18 30.74C15.28 30.73 15.45 30.73 15.45 30.73C15.63 30.72 15.82 30.7 16.01 30.7C16.17 30.7 16.32 30.72 16.48 30.72C16.48 30.72 16.65 30.73 16.75 30.73C16.79 30.71 16.8 30.61 16.76 30.57L16.58 30.55C16.55 30.55 16.48 30.54 16.48 30.54C16.32 30.53 16.11 30.5 16.11 30.31C16.11 30.19 16.17 30.05 16.21 29.94L16.43 29.44C16.53 29.19 16.49 29.17 16.77 29.17L17.74 29.17C18.08 29.17 18.03 29.17 18.18 29.51L18.41 30.03C18.44 30.11 18.51 30.26 18.51 30.36C18.51 30.53 18.32 30.54 18.15 30.55C18.15 30.55 18.09 30.56 18.04 30.56L17.87 30.57C17.82 30.61 17.84 30.71 17.88 30.73C17.98 30.73 18.15 30.72 18.15 30.72C18.35 30.72 18.55 30.7 18.75 30.7C19 30.7 19.24 30.72 19.49 30.72C19.57 30.73 19.5 30.73 19.6 30.73C19.64 30.71 19.66 30.61 19.61 30.57L19.59 30.55"/><path data-role="wordmark" fill="#234075" d="M14.28 26.65L14.76 26.65C15.12 26.65 15.38 26.7 15.53 26.81C15.63 26.88 15.68 27.12 15.7 27.28C15.73 27.32 15.85 27.32 15.87 27.27C15.85 27.07 15.9 26.55 15.97 26.29C15.96 26.26 15.89 26.26 15.85 26.27C15.75 26.44 15.69 26.45 15.33 26.45L12.62 26.45C12.31 26.45 12.09 26.46 12.05 26.25C12.03 26.23 11.94 26.24 11.92 26.25C11.88 26.51 11.78 26.92 11.67 27.21C11.69 27.26 11.79 27.29 11.84 27.25C11.92 27.09 11.98 26.95 12.14 26.81C12.31 26.66 12.68 26.65 12.97 26.65L13.34 26.65C13.54 26.65 13.54 26.66 13.54 26.86L13.54 29.73C13.54 30.41 13.5 30.51 13.12 30.54L12.88 30.56C12.83 30.59 12.84 30.7 12.88 30.72C13.31 30.71 13.54 30.7 13.81 30.7C14.08 30.7 14.31 30.71 14.69 30.72C14.73 30.7 14.74 30.58 14.7 30.56L14.49 30.54C14.1 30.51 14.09 30.41 14.09 29.73L14.09 26.87C14.09 26.66 14.08 26.65 14.28 26.65"/><path data-role="wordmark" fill="#234075" d="M11.14 26.6L11.32 26.59C11.36 26.57 11.35 26.45 11.31 26.43C10.95 26.44 10.71 26.45 10.42 26.45C10.12 26.45 9.88 26.44 9.52 26.43C9.48 26.45 9.46 26.57 9.51 26.59L9.68 26.6C10.11 26.64 10.12 26.75 10.12 27.43L10.12 29.72C10.12 30.4 10.11 30.49 9.68 30.54L9.51 30.56C9.46 30.6 9.48 30.7 9.52 30.72C9.88 30.71 10.12 30.7 10.42 30.7C10.71 30.7 10.95 30.71 11.31 30.72C11.35 30.7 11.36 30.58 11.32 30.56L11.14 30.54C10.72 30.49 10.71 30.4 10.71 29.72L10.71 27.43C10.71 26.75 10.72 26.64 11.14 26.6"/><path data-role="wordmark" fill="#234075" fill-rule="evenodd" d="M6.08 28.34C6.08 28.51 6.34 28.46 6.47 28.46C6.82 28.46 7.14 28.43 7.43 28.23C7.68 28.06 7.78 27.8 7.78 27.53C7.78 26.89 7.36 26.55 6.68 26.55C6.1 26.55 6.08 26.62 6.08 27.1L6.08 28.34M8.9 30.56C8.86 30.56 8.83 30.55 8.8 30.55C8.54 30.5 8.44 30.27 8.31 30.05L7.69 28.98C7.59 28.8 7.47 28.56 7.23 28.52C7.86 28.44 8.43 28.08 8.43 27.45C8.43 26.73 7.72 26.4 6.99 26.4C6.56 26.4 6.13 26.43 5.69 26.43C5.44 26.43 5.18 26.4 4.94 26.4C4.8 26.4 4.8 26.43 4.8 26.51C4.8 26.62 4.85 26.59 4.99 26.59C5.53 26.59 5.49 26.72 5.49 27.16L5.49 29.98C5.49 30.39 5.52 30.51 5.1 30.55C5.1 30.55 5.03 30.55 5 30.56L4.82 30.58C4.77 30.61 4.79 30.72 4.83 30.74C4.93 30.73 5.1 30.73 5.1 30.73C5.33 30.72 5.57 30.7 5.8 30.7C6.04 30.7 6.26 30.72 6.5 30.73C6.58 30.73 6.66 30.73 6.76 30.74C6.8 30.72 6.82 30.61 6.77 30.57L6.59 30.56C6.56 30.55 6.49 30.55 6.49 30.55C6.07 30.52 6.09 30.4 6.09 29.98L6.09 28.92C6.09 28.86 6.08 28.69 6.13 28.64C6.17 28.6 6.24 28.61 6.3 28.61C6.88 28.61 6.87 28.67 7.14 29.15L7.89 30.49C7.95 30.6 8 30.73 8.15 30.73L8.8 30.73C8.88 30.73 8.97 30.73 9.07 30.74C9.11 30.72 9.12 30.62 9.08 30.58L8.9 30.56"/><path data-role="wordmark" fill="#234075" d="M1.43 29.46C1.43 29.73 1.45 30.12 1.61 30.28C1.77 30.46 2.02 30.49 2.27 30.49C3.01 30.49 3.58 30.19 3.58 29.44C3.58 28.84 3.25 28.15 1.92 28.15C1.46 28.15 1.43 28.19 1.43 28.35L1.43 29.46M1.43 27.71C1.43 27.92 1.44 27.94 1.87 27.92C2.72 27.89 3.18 27.67 3.18 26.96C3.18 26.22 2.57 25.94 1.93 25.94C1.75 25.94 1.62 25.96 1.55 25.99C1.46 26.01 1.43 26.05 1.43 26.18L1.43 27.71M0.74 26.71C0.74 26.15 0.71 26.01 0.33 25.98L0.07 25.96C0 25.91 0.01 25.8 0.08 25.77C0.53 25.73 1.1 25.71 1.88 25.71C2.4 25.71 2.9 25.74 3.28 25.92C3.64 26.08 3.92 26.38 3.92 26.86C3.92 27.4 3.57 27.68 3.06 27.89C3.06 27.97 3.13 27.99 3.22 28.01C3.67 28.08 4.34 28.46 4.34 29.27C4.34 30.14 3.62 30.73 2.12 30.73C1.88 30.73 1.46 30.71 1.11 30.71C0.74 30.71 0.46 30.72 0.15 30.73C0.1 30.71 0.08 30.58 0.13 30.54L0.28 30.52C0.73 30.45 0.74 30.37 0.74 29.57L0.74 26.71"/><path data-role="wordmark" fill="#234075" d="M41.35 22.34C42.12 22.34 42.22 22.32 42.3 22.31C42.34 22.31 42.34 22.32 42.3 22.37C42.2 22.47 41.95 22.57 41.72 22.6C41.44 22.62 41.12 22.63 40.75 22.63C40.26 22.63 40.07 22.62 40 22.6C39.97 22.58 39.97 22.56 39.98 22.54C40.02 22.5 40.22 22.34 40.27 22.32C40.5 22.34 40.86 22.34 41.35 22.34L41.35 22.34"/><path data-role="wordmark" fill="#234075" d="M39.23 23.6C39.15 23.6 39.1 23.79 39.08 23.83C38.85 24.44 38.47 24.45 37.87 24.45C37.32 24.45 37.02 24.44 37.02 23.81L37.02 22.63C37.02 22.39 37.09 22.39 37.36 22.39C37.57 22.39 37.93 22.39 38.2 22.46C38.35 22.49 38.41 22.69 38.44 22.89C38.45 22.93 38.47 23.01 38.53 23.01C38.57 23.01 38.61 22.99 38.61 22.88C38.6 22.67 38.59 22.46 38.58 22.24C38.59 22.05 38.6 21.85 38.61 21.66C38.61 21.6 38.57 21.59 38.53 21.59C38.47 21.59 38.45 21.66 38.44 21.71C38.41 21.9 38.37 22.16 38.2 22.18C37.93 22.21 37.57 22.2 37.36 22.2C37.08 22.2 37.02 22.2 37.02 21.88L37.02 20.89C37.02 20.78 37 20.63 37.13 20.58C37.24 20.54 37.54 20.54 37.65 20.54C37.89 20.54 38.19 20.54 38.42 20.61C38.65 20.67 38.74 20.8 38.85 21.01L38.95 21.2C38.97 21.25 39 21.34 39.06 21.34C39.13 21.34 39.12 21.23 39.12 21.19L39.12 20.61C39.12 20.52 39.16 20.35 39.03 20.35C38.44 20.35 37.86 20.38 37.26 20.38C36.89 20.38 36.14 20.36 36.14 20.36C36.06 20.35 35.97 20.35 35.87 20.35C35.83 20.37 35.82 20.48 35.86 20.51L36.04 20.52C36.07 20.52 36.13 20.53 36.13 20.53C36.49 20.55 36.47 20.71 36.47 21.1L36.47 23.88C36.47 24.27 36.49 24.42 36.13 24.44C36.13 24.44 36.07 24.45 36.03 24.45L35.85 24.47C35.81 24.51 35.82 24.61 35.87 24.63C35.96 24.63 36.11 24.62 36.12 24.62C36.2 24.61 36.32 24.6 36.39 24.6L39.1 24.6C39.15 24.6 39.17 24.61 39.17 24.56L39.28 23.84C39.29 23.79 39.3 23.73 39.3 23.68C39.3 23.63 39.28 23.6 39.23 23.6"/><path data-role="wordmark" fill="#234075" d="M34.17 21.34C34.17 20.66 34.16 20.55 33.74 20.52L33.56 20.5C33.52 20.48 33.53 20.36 33.57 20.34C33.93 20.36 34.17 20.36 34.48 20.36C34.76 20.36 35 20.36 35.36 20.34C35.4 20.36 35.42 20.48 35.38 20.5L35.2 20.52C34.78 20.55 34.76 20.66 34.76 21.34L34.76 23.63C34.76 24.32 34.78 24.41 35.2 24.45L35.38 24.47C35.42 24.5 35.4 24.61 35.36 24.63C35 24.62 34.76 24.61 34.48 24.61C34.17 24.61 33.93 24.62 33.57 24.63C33.53 24.61 33.52 24.51 33.56 24.47L33.74 24.45C34.16 24.41 34.17 24.32 34.17 23.63L34.17 21.34"/><path data-role="wordmark" fill="#234075" d="M30.72 23.54C30.72 23.77 30.74 24.11 30.88 24.25C31.02 24.4 31.24 24.43 31.47 24.43C32.13 24.43 32.64 24.17 32.64 23.52C32.64 23.01 32.34 22.41 31.15 22.41C30.75 22.41 30.72 22.45 30.72 22.58L30.72 23.54M30.72 22.03C30.72 22.21 30.73 22.23 31.11 22.21C31.87 22.19 32.28 21.99 32.28 21.38C32.28 20.75 31.74 20.5 31.17 20.5C31.01 20.5 30.89 20.52 30.83 20.54C30.75 20.56 30.72 20.6 30.72 20.71L30.72 22.03M30.11 21.17C30.11 20.69 30.08 20.56 29.74 20.54L29.5 20.52C29.44 20.48 29.45 20.38 29.51 20.35C29.91 20.32 30.42 20.3 31.12 20.3C31.59 20.3 32.04 20.34 32.37 20.48C32.69 20.62 32.94 20.88 32.94 21.3C32.94 21.77 32.63 22.01 32.18 22.19C32.18 22.25 32.24 22.27 32.32 22.29C32.72 22.35 33.32 22.68 33.32 23.37C33.32 24.13 32.68 24.63 31.33 24.63C31.12 24.63 30.75 24.61 30.44 24.61C30.11 24.61 29.85 24.63 29.58 24.63C29.53 24.61 29.52 24.51 29.56 24.47L29.7 24.45C30.09 24.39 30.11 24.32 30.11 23.64L30.11 21.17"/><path data-role="wordmark" fill="#234075" d="M28.91 24.46C28.87 24.45 28.81 24.45 28.81 24.45C28.73 24.44 28.67 24.43 28.61 24.37C28.52 24.28 28.53 24 28.53 23.9L28.53 21.07C28.53 20.95 28.5 20.68 28.59 20.59C28.64 20.54 28.73 20.53 28.81 20.52C28.86 20.52 28.87 20.52 28.91 20.52L29.09 20.5C29.13 20.48 29.12 20.36 29.08 20.34C28.98 20.35 28.89 20.35 28.81 20.35L28.05 20.35C27.97 20.35 27.89 20.35 27.85 20.44L26.3 23.66L24.93 20.55C24.89 20.44 24.88 20.35 24.74 20.35L23.94 20.35C23.86 20.35 23.77 20.35 23.68 20.34C23.63 20.36 23.62 20.48 23.66 20.5L23.84 20.52C23.88 20.52 23.94 20.52 23.94 20.52C24.24 20.54 24.26 20.61 24.23 20.92L24 23.95C23.98 24.25 23.96 24.41 23.64 24.44C23.64 24.44 23.58 24.45 23.54 24.46L23.36 24.48C23.32 24.51 23.33 24.62 23.37 24.64C23.47 24.63 23.64 24.63 23.64 24.63C23.8 24.62 23.96 24.61 24.13 24.61C24.3 24.61 24.48 24.62 24.66 24.63C24.74 24.63 24.83 24.64 24.92 24.64C24.97 24.62 24.98 24.52 24.94 24.48L24.76 24.46C24.71 24.45 24.66 24.45 24.66 24.45C24.2 24.42 24.21 24.09 24.24 23.7L24.46 20.88L24.51 20.88L25.99 24.35C26.01 24.39 26.03 24.48 26.1 24.48C26.17 24.48 26.19 24.4 26.22 24.35L27.88 20.8L27.94 20.8L27.94 23.9C27.94 24.02 27.95 24.27 27.82 24.37C27.76 24.42 27.54 24.45 27.54 24.45C27.51 24.45 27.48 24.46 27.44 24.46L27.27 24.48C27.22 24.52 27.24 24.62 27.28 24.64C27.37 24.64 27.54 24.63 27.54 24.63C27.78 24.62 28.03 24.61 28.28 24.61C28.45 24.61 28.8 24.62 28.8 24.62C28.88 24.63 28.98 24.63 29.07 24.64C29.11 24.62 29.13 24.52 29.09 24.48L28.91 24.46"/><path data-role="wordmark" fill="#234075" d="M22.72 22.64C22.72 21.58 22.23 20.43 20.93 20.43C20.23 20.43 19.32 20.89 19.32 22.3C19.32 23.25 19.8 24.49 21.14 24.49C21.95 24.49 22.72 23.91 22.72 22.64M18.64 22.51C18.64 21.22 19.66 20.23 21.05 20.23C22.61 20.23 23.4 21.31 23.4 22.44C23.4 23.74 22.35 24.69 21.05 24.69C19.55 24.69 18.64 23.67 18.64 22.51"/><path data-role="wordmark" fill="#234075" d="M15.55 21.33C15.55 20.65 15.53 20.55 15.09 20.52L14.91 20.5C14.87 20.48 14.88 20.36 14.93 20.34C15.32 20.36 15.56 20.36 15.85 20.36C16.12 20.36 16.36 20.36 16.72 20.34C16.76 20.36 16.77 20.48 16.73 20.5L16.56 20.52C16.14 20.55 16.13 20.65 16.13 21.33L16.13 23.57C16.13 23.98 16.15 24.14 16.28 24.27C16.36 24.34 16.49 24.41 17.05 24.41C17.65 24.41 17.8 24.39 17.91 24.33C18.06 24.25 18.24 24.02 18.38 23.69C18.43 23.66 18.56 23.69 18.56 23.73C18.56 23.8 18.36 24.46 18.26 24.63C17.9 24.62 17.23 24.61 16.5 24.61L15.85 24.61C15.55 24.61 15.32 24.62 14.93 24.63C14.88 24.61 14.87 24.51 14.91 24.47L15.12 24.45C15.53 24.41 15.55 24.32 15.55 23.65L15.55 21.33"/><path data-role="wordmark" fill="#234075" d="M14.09 22.66C14.09 21.6 13.6 20.45 12.31 20.45C11.6 20.45 10.69 20.91 10.69 22.32C10.69 23.27 11.18 24.51 12.51 24.51C13.32 24.51 14.09 23.93 14.09 22.66M10.02 22.53C10.02 21.24 11.03 20.25 12.42 20.25C13.99 20.25 14.77 21.33 14.77 22.46C14.77 23.76 13.73 24.71 12.42 24.71C10.92 24.71 10.02 23.69 10.02 22.53"/><path data-role="wordmark" fill="#234075" d="M5.82 19.99C6.39 19.55 7.11 19.33 7.93 19.33C8.35 19.33 8.94 19.41 9.31 19.52C9.4 19.54 9.46 19.55 9.53 19.55C9.53 19.73 9.57 20.22 9.63 20.69C9.6 20.74 9.48 20.75 9.42 20.7C9.31 20.18 8.96 19.57 7.82 19.57C6.63 19.57 5.62 20.32 5.62 21.93C5.62 23.57 6.65 24.47 7.93 24.47C8.94 24.47 9.38 23.82 9.56 23.36C9.62 23.32 9.74 23.33 9.77 23.39C9.71 23.79 9.51 24.31 9.39 24.45C9.3 24.47 9.21 24.5 9.12 24.53C8.95 24.59 8.39 24.71 7.89 24.71C7.18 24.71 6.51 24.57 5.94 24.19C5.32 23.76 4.84 23.05 4.84 22.05C4.84 21.19 5.23 20.45 5.82 19.99"/><path data-role="knockout" fill="#ffffff" d="M12.86 15.86C17.4 15.86 23.68 18.41 28.24 18.41C31.49 18.41 34.66 17.54 36.47 16.27C36.59 15.52 36.66 14.75 36.66 13.96C36.66 6.33 30.47 0.14 22.84 0.14C15.21 0.14 9.03 6.33 9.03 13.96C9.03 14.74 9.09 15.5 9.22 16.24C9.71 16.15 11.41 15.86 12.86 15.86"/><path data-role="sun" fill="#e3a82b" d="M31.77 10.76L32.31 10.99L33.53 10.15L31.77 10.76"/><path data-role="sun" fill="#e3a82b" d="M11.41 9.82L9.98 9.32L10.05 9.14L11.67 9.68L11.67 9.68L11.89 9.55L11.97 9.5L10.21 8.75L10.28 8.57L14.22 10.16L14.35 10.1L10.44 8.2L10.53 8.02L14.67 9.95L14.73 9.92L10.71 7.64L10.8 7.47L16.59 10.62C16.64 10.54 16.74 10.38 16.79 10.29C14.58 8.22 12.46 6.67 12.46 6.67C12.46 6.67 14.64 8.13 17.34 9.49C17.43 9.38 17.5 9.29 17.6 9.18L12.66 4.84L12.79 4.7L16.78 8.1L13.08 4.4L13.22 4.26L17.37 8.26L13.51 3.98L13.66 3.84L17.23 7.67L13.97 3.56L14.11 3.43L18.28 8.52C18.39 8.42 18.48 8.35 18.59 8.27C17.33 5.53 15.95 3.31 15.95 3.31C15.95 3.31 17.42 5.47 19.4 7.73C19.52 7.66 19.64 7.6 19.77 7.54L19.75 7.52L16.82 1.68L17 1.61L19.42 6.25L17.38 1.44L17.56 1.36L19.91 6.63L17.93 1.21L18.12 1.14L20 6.02L18.51 0.99L18.69 0.93L20.64 7.16L20.64 7.18L20.65 7.18C20.78 7.13 20.91 7.1 21.04 7.06C20.89 4.07 20.45 1.5 20.45 1.5C20.45 1.5 21 4.04 21.98 6.87C22.12 6.86 22.26 6.84 22.39 6.83L22.39 6.83L22.41 6.83L22.4 6.81L21.87 0.3L22.06 0.29L22.57 5.51L22.48 0.28L22.68 0.28L22.88 6.04L23.08 0.28L23.28 0.28L23.19 5.51L23.7 0.3L23.89 0.3L23.36 6.81L23.35 6.83L23.36 6.83L23.35 6.83L23.36 6.83C23.5 6.84 23.63 6.85 23.77 6.87C24.75 4.04 25.3 1.5 25.3 1.5C25.3 1.5 24.86 4.06 24.71 7.05C24.84 7.08 24.97 7.12 25.1 7.16L27.05 0.95L27.23 1.02L25.74 6.04L27.62 1.16L27.81 1.23L25.83 6.65L28.18 1.38L28.36 1.46L26.32 6.28L28.74 1.63L28.92 1.71L26 7.53L26.01 7.53C26.13 7.59 26.24 7.65 26.36 7.71C28.33 5.46 29.79 3.31 29.79 3.31C29.79 3.31 28.42 5.52 27.16 8.24C27.28 8.32 27.39 8.41 27.49 8.5L31.62 3.48L31.76 3.6L28.5 7.71L32.07 3.89L32.22 4.02L28.36 8.3L32.51 4.29L32.64 4.44L28.95 8.14L32.94 4.74L33.07 4.88L28.19 9.18L28.19 9.18C28.28 9.27 28.36 9.37 28.44 9.47C31.12 8.12 33.29 6.67 33.29 6.67C33.29 6.67 31.18 8.21 28.99 10.26C29.05 10.36 29.15 10.53 29.2 10.64L34.91 7.53L35 7.7L30.44 10.28L35.18 8.08L35.27 8.26L30.85 10.41L30.93 10.44L35.43 8.62L35.5 8.8L31.33 10.58L31.4 10.61L34.19 9.69L34.61 9.39L34.75 9.5L35.66 9.19L35.73 9.37L34.94 9.65L36.09 10.52L36.45 10.73C34.98 4.57 29.45 0 22.84 0C16.12 0 10.51 4.74 9.16 11.05C9.18 11.04 9.19 11.04 9.21 11.03L9.38 10.95L9.48 10.9L11.41 9.82"/><path data-role="mountains" fill="#234075" d="M9.08 16.54C9.08 16.54 11.14 16.13 12.87 16.13C17.41 16.13 23.69 18.68 28.24 18.68C31.59 18.68 34.85 17.77 36.62 16.43C36.76 15.64 36.84 14.82 36.84 13.99C36.84 12.87 36.7 11.77 36.45 10.73L34.55 9.67L32.32 11.23L30.82 10.65C30.32 10.9 27.18 13 27.18 13L25.98 12.13L24.69 11.87L22.97 10.62L21 11.97C21 11.97 18.8 13.25 18.72 13.25C18.65 13.25 16.07 11.21 16.07 11.21L14.88 9.95C14.68 10.08 13.87 10.45 13.87 10.45L13.83 10.46L13.05 10.22L12.1 9.72L9.21 11.03C9.19 11.04 9.18 11.04 9.16 11.05C8.96 12 8.85 12.98 8.85 13.99C8.85 14.86 8.93 15.71 9.08 16.54"/></g><rect data-role="divider" x="50.89" y="0.0" width="0.33" height="30.9" fill="#e3a82b"/><g transform="translate(56.25 8.85)"><path data-role="name" fill="#234075" d="M2.98 3.62C3.17 4 3.35 4.37 3.54 4.73L3.56 4.73C3.78 4.35 3.98 3.93 4.18 3.52L4.94 1.97C5.3 1.24 5.54 0.79 5.55 0.42C5.83 0.45 6 0.45 6.16 0.45C6.36 0.45 6.63 0.44 6.88 0.42C6.93 0.45 6.93 0.59 6.89 0.62L6.72 0.64C6.21 0.69 6.14 0.84 6.15 1.41C6.17 2.26 6.18 3.76 6.24 4.92C6.27 5.33 6.26 5.55 6.64 5.58L6.9 5.6C6.94 5.65 6.94 5.77 6.88 5.81C6.55 5.79 6.22 5.78 5.93 5.78C5.64 5.78 5.28 5.79 4.95 5.81C4.89 5.76 4.88 5.65 4.93 5.6L5.17 5.58C5.56 5.54 5.56 5.41 5.56 4.89L5.54 1.52L5.52 1.52C5.47 1.61 5.16 2.26 5 2.57L4.28 3.99C3.91 4.7 3.55 5.46 3.4 5.83C3.39 5.85 3.36 5.86 3.32 5.86C3.31 5.86 3.27 5.85 3.25 5.83C3.11 5.4 2.72 4.61 2.54 4.21L1.81 2.65C1.64 2.28 1.47 1.86 1.29 1.49L1.28 1.49C1.25 1.99 1.22 2.46 1.2 2.93C1.17 3.42 1.14 4.14 1.14 4.83C1.14 5.43 1.19 5.55 1.5 5.58L1.81 5.6C1.87 5.65 1.86 5.78 1.8 5.81C1.53 5.79 1.21 5.78 0.91 5.78C0.65 5.78 0.36 5.79 0.08 5.81C0.03 5.76 0.02 5.64 0.06 5.6L0.24 5.58C0.58 5.53 0.7 5.48 0.74 4.92C0.79 4.38 0.83 3.94 0.88 3.14C0.92 2.47 0.95 1.78 0.97 1.33C0.99 0.83 0.92 0.7 0.43 0.64L0.3 0.62C0.26 0.57 0.27 0.45 0.33 0.42C0.57 0.44 0.77 0.45 0.97 0.45C1.16 0.45 1.37 0.45 1.64 0.42C1.61 0.74 1.81 1.24 2.06 1.76L2.98 3.62"/><path data-role="name" fill="#234075" d="M8.5 1.16C8.5 1.45 8.3 1.58 8.07 1.58C7.82 1.58 7.66 1.39 7.66 1.17C7.66 0.91 7.85 0.74 8.09 0.74C8.34 0.74 8.5 0.93 8.5 1.16M7.83 3.46C7.83 3.15 7.83 3.1 7.61 2.96L7.54 2.91C7.5 2.88 7.5 2.79 7.54 2.77C7.73 2.7 8.19 2.49 8.38 2.37C8.42 2.37 8.45 2.39 8.46 2.42C8.44 2.7 8.42 3.09 8.42 3.42L8.42 4.88C8.42 5.46 8.44 5.54 8.73 5.58L8.9 5.6C8.96 5.64 8.94 5.78 8.89 5.8C8.64 5.79 8.41 5.78 8.13 5.78C7.83 5.78 7.59 5.79 7.37 5.8C7.31 5.78 7.29 5.64 7.35 5.6L7.52 5.58C7.82 5.54 7.83 5.46 7.83 4.88L7.83 3.46"/><path data-role="name" fill="#234075" d="M9.82 3.46C9.82 3.15 9.82 3.1 9.61 2.96L9.53 2.91C9.5 2.88 9.5 2.79 9.54 2.77C9.73 2.7 10.19 2.49 10.35 2.37C10.38 2.37 10.42 2.39 10.44 2.43C10.42 2.61 10.42 2.73 10.42 2.81C10.42 2.85 10.45 2.89 10.51 2.89C10.85 2.68 11.23 2.48 11.64 2.48C12.31 2.48 12.59 2.94 12.59 3.48L12.59 4.88C12.59 5.46 12.6 5.54 12.89 5.58L13.07 5.6C13.13 5.64 13.11 5.78 13.06 5.8C12.81 5.79 12.58 5.78 12.3 5.78C12.01 5.78 11.76 5.79 11.54 5.8C11.49 5.78 11.47 5.64 11.53 5.6L11.68 5.58C11.98 5.53 11.99 5.46 11.99 4.88L11.99 3.67C11.99 3.21 11.78 2.87 11.23 2.87C10.92 2.87 10.66 3 10.54 3.15C10.44 3.29 10.42 3.4 10.42 3.64L10.42 4.88C10.42 5.46 10.44 5.53 10.73 5.58L10.87 5.6C10.93 5.64 10.91 5.78 10.86 5.8C10.64 5.79 10.4 5.78 10.12 5.78C9.83 5.78 9.59 5.79 9.36 5.8C9.31 5.78 9.29 5.64 9.35 5.6L9.52 5.58C9.82 5.54 9.82 5.46 9.82 4.88L9.82 3.46"/><path data-role="name" fill="#234075" d="M14.66 1.16C14.66 1.45 14.46 1.58 14.23 1.58C13.98 1.58 13.82 1.39 13.82 1.17C13.82 0.91 14.01 0.74 14.25 0.74C14.5 0.74 14.66 0.93 14.66 1.16M13.99 3.46C13.99 3.15 13.99 3.1 13.77 2.96L13.7 2.91C13.66 2.88 13.66 2.79 13.7 2.77C13.89 2.7 14.35 2.49 14.54 2.37C14.58 2.37 14.61 2.39 14.62 2.42C14.6 2.7 14.59 3.09 14.59 3.42L14.59 4.88C14.59 5.46 14.6 5.54 14.89 5.58L15.06 5.6C15.12 5.64 15.1 5.78 15.05 5.8C14.8 5.79 14.57 5.78 14.29 5.78C13.99 5.78 13.75 5.79 13.53 5.8C13.47 5.78 13.45 5.64 13.51 5.6L13.68 5.58C13.98 5.54 13.99 5.46 13.99 4.88L13.99 3.46"/><path data-role="name" fill="#234075" d="M17.41 2.63C17.48 2.81 17.54 3.07 17.54 3.28C17.5 3.34 17.38 3.35 17.34 3.31C17.2 2.95 16.96 2.72 16.63 2.72C16.32 2.72 16.11 2.92 16.11 3.21C16.11 3.54 16.45 3.72 16.74 3.88C17.16 4.12 17.56 4.4 17.56 4.97C17.56 5.59 16.99 5.89 16.4 5.89C16.02 5.89 15.73 5.81 15.53 5.65C15.47 5.5 15.42 5.1 15.43 4.83C15.47 4.79 15.58 4.78 15.62 4.83C15.76 5.27 16.02 5.66 16.48 5.66C16.77 5.66 17.02 5.49 17.02 5.14C17.02 4.77 16.7 4.57 16.4 4.4C15.93 4.13 15.6 3.85 15.6 3.4C15.6 2.81 16.08 2.48 16.7 2.48C17.03 2.48 17.33 2.56 17.41 2.63"/><path data-role="name" fill="#234075" d="M19.18 2.94C19.04 2.94 19.03 2.96 19.03 3.13L19.03 4.64C19.03 5.11 19.09 5.54 19.62 5.54C19.7 5.54 19.78 5.52 19.84 5.5C19.91 5.47 20.02 5.39 20.04 5.39C20.11 5.39 20.14 5.47 20.12 5.52C19.98 5.69 19.69 5.89 19.27 5.89C18.58 5.89 18.43 5.51 18.43 5.02L18.43 3.17C18.43 2.95 18.43 2.94 18.26 2.94L18.04 2.94C17.99 2.9 17.98 2.81 18.01 2.77C18.25 2.69 18.45 2.59 18.53 2.52C18.64 2.42 18.79 2.2 18.87 2.04C18.91 2.02 19.01 2.02 19.04 2.08L19.04 2.44C19.04 2.59 19.05 2.6 19.19 2.6L20.08 2.6C20.18 2.67 20.16 2.89 20.09 2.94L19.18 2.94"/><path data-role="name" fill="#234075" d="M21.68 3.47C22.27 3.47 22.45 3.44 22.52 3.39C22.54 3.37 22.56 3.34 22.56 3.23C22.56 3.01 22.41 2.72 21.94 2.72C21.47 2.72 21.05 3.16 21.05 3.43C21.05 3.44 21.05 3.47 21.1 3.47L21.68 3.47M22.29 1.95C22.29 2.02 22.17 2.05 22.12 2.05L21.17 1.02C21.08 0.91 21.04 0.84 21.04 0.78C21.04 0.72 21.09 0.66 21.19 0.57C21.31 0.49 21.41 0.46 21.47 0.46C21.55 0.46 21.6 0.54 21.65 0.65L22.29 1.95M21.17 3.71C20.96 3.71 20.96 3.73 20.96 3.93C20.96 4.75 21.43 5.44 22.3 5.44C22.56 5.44 22.79 5.36 23.04 5.04C23.12 5.02 23.18 5.07 23.19 5.14C22.92 5.69 22.34 5.89 21.92 5.89C21.39 5.89 20.98 5.67 20.75 5.36C20.5 5.04 20.41 4.67 20.41 4.31C20.41 3.31 21.06 2.48 22.03 2.48C22.73 2.48 23.18 2.96 23.18 3.44C23.18 3.56 23.16 3.62 23.15 3.65C23.12 3.7 23.01 3.71 22.67 3.71L21.17 3.71"/><path data-role="name" fill="#234075" d="M24.04 3.46C24.04 3.15 24.04 3.1 23.82 2.96L23.75 2.91C23.71 2.88 23.71 2.79 23.75 2.77C23.94 2.7 24.37 2.49 24.57 2.37C24.61 2.38 24.63 2.39 24.63 2.43L24.63 2.89C24.63 2.94 24.64 2.96 24.66 2.97C24.94 2.73 25.25 2.48 25.55 2.48C25.75 2.48 25.91 2.61 25.91 2.81C25.91 3.07 25.69 3.18 25.56 3.18C25.48 3.18 25.44 3.15 25.39 3.12C25.27 3.04 25.14 2.99 25.03 2.99C24.9 2.99 24.8 3.06 24.74 3.15C24.66 3.27 24.63 3.5 24.63 3.78L24.63 4.88C24.63 5.46 24.65 5.55 24.96 5.58L25.25 5.6C25.31 5.64 25.29 5.78 25.23 5.8C24.85 5.79 24.62 5.78 24.34 5.78C24.04 5.78 23.8 5.79 23.59 5.8C23.54 5.78 23.52 5.64 23.58 5.6L23.73 5.58C24.03 5.53 24.04 5.46 24.04 4.88L24.04 3.46"/><path data-role="name" fill="#234075" d="M27.32 3.47C27.92 3.47 28.09 3.44 28.16 3.39C28.18 3.37 28.21 3.34 28.21 3.23C28.21 3.01 28.05 2.72 27.59 2.72C27.11 2.72 26.7 3.16 26.69 3.43C26.69 3.44 26.69 3.47 26.74 3.47L27.32 3.47M26.82 3.71C26.61 3.71 26.6 3.73 26.6 3.93C26.6 4.75 27.08 5.44 27.94 5.44C28.21 5.44 28.43 5.36 28.68 5.04C28.77 5.02 28.82 5.07 28.83 5.14C28.56 5.69 27.98 5.89 27.56 5.89C27.04 5.89 26.62 5.67 26.39 5.36C26.15 5.04 26.05 4.67 26.05 4.31C26.05 3.31 26.7 2.48 27.67 2.48C28.37 2.48 28.82 2.96 28.82 3.44C28.82 3.56 28.81 3.62 28.79 3.65C28.77 3.7 28.65 3.71 28.31 3.71L26.82 3.71"/><path data-role="name" fill="#234075" d="M33.66 3.39C33.66 3.23 33.63 3.15 33.57 3.07C33.45 2.9 33.2 2.73 32.89 2.73C32.15 2.73 31.77 3.37 31.77 4.08C31.77 4.81 32.19 5.51 32.98 5.51C33.2 5.51 33.47 5.41 33.6 5.28C33.65 5.23 33.66 5.11 33.66 4.98L33.66 3.39M34.26 4.6C34.26 5.24 34.26 5.54 34.49 5.54C34.58 5.54 34.72 5.5 34.84 5.46C34.89 5.47 34.9 5.68 34.83 5.72C34.49 5.77 33.99 5.89 33.76 5.98C33.71 5.98 33.67 5.95 33.67 5.91L33.67 5.77C33.67 5.65 33.67 5.55 33.66 5.52L33.63 5.52C33.27 5.77 32.99 5.89 32.61 5.89C31.71 5.89 31.11 5.19 31.11 4.34C31.11 3.21 31.97 2.48 33.07 2.48C33.34 2.48 33.52 2.52 33.61 2.55C33.65 2.55 33.66 2.51 33.66 2.44L33.66 1.22C33.66 0.74 33.65 0.7 33.41 0.55L33.33 0.5C33.29 0.48 33.29 0.36 33.33 0.34C33.53 0.27 33.91 0.15 34.2 0C34.23 0 34.26 0.02 34.28 0.05C34.27 0.29 34.26 0.7 34.26 1.05L34.26 4.6"/><path data-role="name" fill="#234075" d="M36.41 3.47C37.01 3.47 37.19 3.44 37.26 3.39C37.28 3.37 37.3 3.34 37.3 3.23C37.3 3.01 37.15 2.72 36.68 2.72C36.2 2.72 35.79 3.16 35.78 3.43C35.78 3.44 35.78 3.47 35.84 3.47L36.41 3.47M35.91 3.71C35.7 3.71 35.69 3.73 35.69 3.93C35.69 4.75 36.17 5.44 37.04 5.44C37.3 5.44 37.53 5.36 37.78 5.04C37.86 5.02 37.92 5.07 37.93 5.14C37.66 5.69 37.08 5.89 36.66 5.89C36.13 5.89 35.72 5.67 35.48 5.36C35.24 5.04 35.15 4.67 35.15 4.31C35.15 3.31 35.8 2.48 36.77 2.48C37.47 2.48 37.92 2.96 37.92 3.44C37.92 3.56 37.9 3.62 37.89 3.65C37.86 3.7 37.75 3.71 37.41 3.71L35.91 3.71"/><path data-role="name" fill="#234075" d="M1.15 13.17C1.15 13.75 1.16 13.83 1.46 13.87L1.65 13.9C1.71 13.94 1.69 14.08 1.63 14.1C1.37 14.08 1.13 14.08 0.85 14.08C0.56 14.08 0.32 14.08 0.07 14.1C0.02 14.08 0 13.94 0.06 13.9L0.24 13.87C0.54 13.83 0.55 13.75 0.55 13.17L0.55 9.52C0.55 9.04 0.54 8.99 0.3 8.85L0.22 8.8C0.18 8.77 0.18 8.66 0.22 8.63C0.42 8.57 0.8 8.45 1.09 8.3C1.12 8.3 1.16 8.31 1.17 8.34C1.16 8.59 1.15 8.99 1.15 9.35L1.15 13.17"/><path data-role="name" fill="#234075" d="M3.11 9.19C3.11 9.75 2.68 10.14 2.17 10.29C2.1 10.26 2.07 10.18 2.11 10.12C2.41 9.99 2.72 9.76 2.72 9.43C2.72 9.12 2.47 8.98 2.32 8.97C2.21 8.97 2.1 8.9 2.1 8.75C2.1 8.63 2.17 8.42 2.49 8.42C2.82 8.42 3.11 8.77 3.11 9.19"/><path data-role="name" fill="#234075" d="M5.55 8.37C5.49 8.35 5.44 8.26 5.47 8.17L6.61 7.24C6.7 7.18 6.78 7.14 6.82 7.14C6.88 7.14 6.99 7.2 7.05 7.33C7.13 7.48 7.13 7.59 7.11 7.66C7.07 7.7 7.02 7.74 6.9 7.79L5.55 8.37M4.51 9.95C4.51 9.11 4.5 8.99 4.02 8.93L3.89 8.92C3.84 8.89 3.86 8.74 3.91 8.72C4.25 8.73 4.53 8.74 4.86 8.74L6.38 8.74C6.9 8.74 7.37 8.74 7.47 8.72C7.52 8.85 7.57 9.44 7.6 9.79C7.57 9.84 7.44 9.86 7.4 9.81C7.28 9.43 7.2 9.14 6.78 9.04C6.61 9 6.35 8.99 6 8.99L5.42 8.99C5.17 8.99 5.17 9.01 5.17 9.31L5.17 10.93C5.17 11.16 5.2 11.16 5.44 11.16L5.91 11.16C6.25 11.16 6.5 11.14 6.6 11.11C6.69 11.08 6.75 11.03 6.79 10.83L6.86 10.49C6.9 10.45 7.03 10.45 7.07 10.5C7.07 10.7 7.03 11.01 7.03 11.32C7.03 11.61 7.07 11.92 7.07 12.1C7.03 12.15 6.9 12.15 6.86 12.1L6.78 11.79C6.75 11.64 6.69 11.52 6.53 11.48C6.42 11.45 6.23 11.44 5.91 11.44L5.44 11.44C5.2 11.44 5.17 11.45 5.17 11.66L5.17 12.8C5.17 13.23 5.2 13.5 5.33 13.64C5.43 13.74 5.59 13.83 6.31 13.83C6.93 13.83 7.16 13.79 7.34 13.7C7.49 13.62 7.71 13.34 7.92 12.92C7.97 12.88 8.08 12.9 8.12 12.98C8.06 13.26 7.86 13.88 7.75 14.1C7.03 14.08 6.31 14.08 5.59 14.08L4.86 14.08C4.51 14.08 4.24 14.08 3.76 14.1C3.71 14.08 3.69 13.95 3.74 13.9L4.01 13.87C4.47 13.83 4.51 13.71 4.51 12.86L4.51 9.95"/><path data-role="name" fill="#234075" d="M10.94 11.68C10.94 11.52 10.91 11.45 10.85 11.37C10.73 11.2 10.49 11.03 10.17 11.03C9.43 11.03 9.05 11.67 9.05 12.37C9.05 13.11 9.47 13.8 10.26 13.8C10.48 13.8 10.75 13.7 10.88 13.57C10.93 13.53 10.94 13.4 10.94 13.28L10.94 11.68M11.54 12.9C11.54 13.53 11.54 13.83 11.77 13.83C11.86 13.83 12 13.79 12.12 13.75C12.18 13.77 12.18 13.97 12.11 14.01C11.77 14.06 11.27 14.18 11.04 14.27C11 14.27 10.95 14.25 10.95 14.2L10.95 14.07C10.95 13.95 10.95 13.85 10.94 13.82L10.91 13.82C10.55 14.06 10.28 14.19 9.89 14.19C8.99 14.19 8.39 13.49 8.39 12.64C8.39 11.5 9.25 10.78 10.35 10.78C10.62 10.78 10.8 10.82 10.89 10.85C10.93 10.85 10.94 10.8 10.94 10.74L10.94 9.52C10.94 9.04 10.93 8.99 10.69 8.84L10.61 8.8C10.57 8.77 10.57 8.66 10.61 8.63C10.81 8.57 11.19 8.45 11.48 8.3C11.51 8.3 11.54 8.31 11.56 8.34C11.55 8.59 11.54 8.99 11.54 9.35L11.54 12.9"/><path data-role="name" fill="#234075" d="M13.43 12.89C13.43 13.45 13.57 13.82 14.18 13.82C14.4 13.82 14.66 13.73 14.84 13.57C14.94 13.48 15 13.36 15 13.11L15 11.78C15 11.25 14.94 11.24 14.7 11.14L14.59 11.1C14.54 11.07 14.54 10.96 14.6 10.92C14.93 10.91 15.37 10.86 15.55 10.78C15.59 10.79 15.61 10.8 15.62 10.83C15.6 10.99 15.6 11.24 15.6 11.54L15.6 12.9C15.6 13.53 15.62 13.78 15.85 13.78C15.94 13.78 16.05 13.76 16.16 13.74C16.21 13.78 16.22 13.94 16.15 13.97C15.84 14.04 15.37 14.12 15.09 14.27C15.05 14.27 15.01 14.25 15 14.21L15 13.88C15 13.81 14.97 13.77 14.93 13.77C14.68 13.92 14.29 14.19 13.81 14.19C13.1 14.19 12.83 13.83 12.83 13.18L12.83 11.83C12.83 11.32 12.83 11.25 12.59 11.14L12.49 11.1C12.44 11.06 12.45 10.95 12.51 10.92C12.88 10.91 13.2 10.84 13.37 10.78C13.42 10.79 13.45 10.8 13.45 10.83C13.44 10.97 13.43 11.14 13.43 11.54L13.43 12.89"/><path data-role="name" fill="#234075" d="M19.13 10.91C19.19 10.97 19.25 11.1 19.25 11.24C19.25 11.38 19.17 11.54 19.07 11.54C19.03 11.54 18.99 11.52 18.96 11.48C18.78 11.26 18.48 11.05 18.15 11.05C17.58 11.05 17.04 11.5 17.04 12.35C17.04 12.98 17.47 13.74 18.34 13.74C18.8 13.74 19.05 13.53 19.23 13.25C19.3 13.23 19.37 13.29 19.38 13.36C19.11 13.96 18.5 14.19 18.03 14.19C17.6 14.19 17.2 14.05 16.92 13.78C16.64 13.5 16.45 13.11 16.45 12.58C16.45 11.71 17.07 10.78 18.41 10.78C18.6 10.78 18.91 10.82 19.13 10.91"/><path data-role="name" fill="#234075" d="M20.81 13.83C20.97 13.83 21.22 13.7 21.3 13.62C21.4 13.53 21.4 13.41 21.41 13.24L21.42 12.77C21.42 12.68 21.39 12.66 21.34 12.66C21.3 12.66 21.16 12.69 21.01 12.74C20.54 12.9 20.3 13.02 20.3 13.34C20.3 13.48 20.4 13.83 20.81 13.83M21.31 12.4C21.43 12.36 21.45 12.29 21.45 12.17L21.46 11.8C21.47 11.5 21.37 11.09 20.87 11.09C20.64 11.09 20.37 11.21 20.35 11.46C20.34 11.59 20.33 11.68 20.27 11.73C20.15 11.83 19.93 11.89 19.81 11.89C19.74 11.89 19.69 11.84 19.69 11.77C19.69 11.35 20.61 10.78 21.2 10.78C21.78 10.78 22.06 11.12 22.04 11.72L21.99 13.13C21.97 13.5 22.05 13.83 22.36 13.83C22.44 13.83 22.52 13.81 22.56 13.79C22.61 13.76 22.65 13.73 22.67 13.73C22.7 13.73 22.73 13.78 22.73 13.83C22.73 13.87 22.44 14.19 22.05 14.19C21.85 14.19 21.66 14.12 21.52 13.94C21.49 13.89 21.44 13.83 21.39 13.83C21.34 13.83 21.24 13.9 21.08 13.99C20.9 14.08 20.72 14.19 20.5 14.19C20.26 14.19 20.07 14.12 19.93 14C19.78 13.87 19.68 13.66 19.68 13.44C19.68 13.12 19.83 12.94 20.35 12.75L21.31 12.4"/><path data-role="name" fill="#234075" d="M24.08 11.23C23.94 11.23 23.93 11.25 23.93 11.42L23.93 12.94C23.93 13.41 23.99 13.83 24.52 13.83C24.6 13.83 24.67 13.82 24.74 13.79C24.81 13.77 24.92 13.68 24.94 13.68C25.01 13.68 25.04 13.77 25.02 13.82C24.88 13.99 24.59 14.19 24.17 14.19C23.48 14.19 23.33 13.8 23.33 13.32L23.33 11.47C23.33 11.25 23.32 11.23 23.16 11.23L22.94 11.23C22.89 11.2 22.88 11.11 22.91 11.06C23.15 10.99 23.35 10.88 23.43 10.81C23.53 10.71 23.69 10.49 23.77 10.33C23.81 10.32 23.91 10.32 23.94 10.37L23.94 10.74C23.94 10.88 23.95 10.89 24.08 10.89L24.98 10.89C25.08 10.96 25.06 11.18 24.99 11.23L24.08 11.23"/><path data-role="name" fill="#234075" d="M26.49 9.45C26.49 9.74 26.28 9.87 26.06 9.87C25.81 9.87 25.65 9.69 25.65 9.47C25.65 9.2 25.84 9.03 26.08 9.03C26.32 9.03 26.49 9.23 26.49 9.45M25.82 11.76C25.82 11.44 25.82 11.4 25.6 11.25L25.52 11.21C25.49 11.17 25.49 11.08 25.53 11.06C25.72 11 26.18 10.79 26.37 10.66C26.41 10.66 26.44 10.68 26.45 10.71C26.43 11 26.41 11.38 26.41 11.72L26.41 13.17C26.41 13.75 26.43 13.83 26.72 13.87L26.89 13.9C26.95 13.94 26.93 14.08 26.87 14.1C26.63 14.08 26.4 14.08 26.11 14.08C25.82 14.08 25.58 14.08 25.35 14.1C25.3 14.08 25.28 13.94 25.34 13.9L25.51 13.87C25.81 13.83 25.82 13.75 25.82 13.17L25.82 11.76"/><path data-role="name" fill="#234075" d="M28.93 11.02C28.39 11.02 28 11.53 28 12.42C28 13.15 28.33 13.95 29.04 13.95C29.75 13.95 29.97 13.2 29.97 12.58C29.97 11.89 29.7 11.02 28.93 11.02M30.67 12.45C30.67 13.46 29.97 14.19 28.96 14.19C28.03 14.19 27.3 13.53 27.3 12.52C27.3 11.51 28.07 10.78 29.02 10.78C29.93 10.78 30.67 11.46 30.67 12.45"/><path data-role="name" fill="#234075" d="M31.62 11.76C31.62 11.44 31.62 11.4 31.4 11.25L31.33 11.21C31.3 11.17 31.3 11.08 31.34 11.06C31.52 11 31.98 10.79 32.15 10.66C32.18 10.66 32.22 10.68 32.23 10.72C32.22 10.91 32.22 11.03 32.22 11.1C32.22 11.15 32.25 11.19 32.31 11.19C32.65 10.98 33.03 10.78 33.44 10.78C34.11 10.78 34.38 11.24 34.38 11.78L34.38 13.17C34.38 13.75 34.4 13.83 34.69 13.87L34.87 13.9C34.93 13.94 34.91 14.08 34.85 14.1C34.61 14.08 34.38 14.08 34.09 14.08C33.8 14.08 33.56 14.08 33.34 14.1C33.28 14.08 33.27 13.94 33.33 13.9L33.48 13.87C33.78 13.83 33.79 13.75 33.79 13.17L33.79 11.97C33.79 11.5 33.58 11.17 33.03 11.17C32.72 11.17 32.45 11.29 32.34 11.45C32.23 11.59 32.22 11.7 32.22 11.93L32.22 13.17C32.22 13.75 32.23 13.83 32.53 13.87L32.67 13.9C32.73 13.94 32.71 14.08 32.65 14.1C32.44 14.08 32.2 14.08 31.92 14.08C31.63 14.08 31.39 14.08 31.16 14.1C31.1 14.08 31.09 13.94 31.14 13.9L31.31 13.87C31.61 13.83 31.62 13.75 31.62 13.17L31.62 11.76"/><path data-role="name" fill="#234075" d="M38.48 11.76C39.08 11.76 39.26 11.73 39.33 11.68C39.35 11.67 39.37 11.63 39.37 11.53C39.37 11.3 39.22 11.02 38.75 11.02C38.27 11.02 37.86 11.46 37.85 11.72C37.85 11.74 37.85 11.76 37.91 11.76L38.48 11.76M37.98 12.01C37.77 12.01 37.76 12.02 37.76 12.22C37.76 13.04 38.24 13.74 39.11 13.74C39.37 13.74 39.6 13.66 39.85 13.34C39.93 13.32 39.99 13.36 40 13.44C39.73 13.99 39.15 14.19 38.73 14.19C38.2 14.19 37.79 13.96 37.55 13.66C37.31 13.34 37.22 12.96 37.22 12.6C37.22 11.61 37.87 10.78 38.84 10.78C39.54 10.78 39.99 11.25 39.99 11.74C39.99 11.85 39.97 11.92 39.96 11.95C39.93 12 39.82 12.01 39.48 12.01L37.98 12.01"/><path data-role="name" fill="#234075" d="M41.51 11.23C41.37 11.23 41.36 11.25 41.36 11.42L41.36 12.94C41.36 13.41 41.42 13.83 41.95 13.83C42.03 13.83 42.11 13.82 42.17 13.79C42.24 13.77 42.35 13.68 42.37 13.68C42.44 13.68 42.47 13.77 42.45 13.82C42.31 13.99 42.02 14.19 41.6 14.19C40.91 14.19 40.76 13.8 40.76 13.32L40.76 11.47C40.76 11.25 40.76 11.23 40.59 11.23L40.37 11.23C40.32 11.2 40.31 11.11 40.34 11.06C40.58 10.99 40.78 10.88 40.86 10.81C40.97 10.71 41.12 10.49 41.2 10.33C41.24 10.32 41.34 10.32 41.37 10.37L41.37 10.74C41.37 10.88 41.38 10.89 41.52 10.89L42.41 10.89C42.51 10.96 42.49 11.18 42.42 11.23L41.51 11.23"/><path data-role="name" fill="#234075" d="M47.22 11.68C47.22 11.52 47.19 11.45 47.13 11.37C47.01 11.2 46.77 11.03 46.46 11.03C45.72 11.03 45.34 11.67 45.34 12.37C45.34 13.11 45.75 13.8 46.54 13.8C46.76 13.8 47.04 13.7 47.17 13.57C47.22 13.53 47.22 13.4 47.22 13.28L47.22 11.68M47.82 12.9C47.82 13.53 47.83 13.83 48.06 13.83C48.14 13.83 48.28 13.79 48.4 13.75C48.46 13.77 48.47 13.97 48.4 14.01C48.06 14.06 47.55 14.18 47.33 14.27C47.28 14.27 47.24 14.25 47.24 14.2L47.24 14.07C47.24 13.95 47.24 13.85 47.22 13.82L47.19 13.82C46.84 14.06 46.56 14.19 46.17 14.19C45.27 14.19 44.68 13.49 44.68 12.64C44.68 11.5 45.53 10.78 46.63 10.78C46.91 10.78 47.09 10.82 47.17 10.85C47.22 10.85 47.22 10.8 47.22 10.74L47.22 9.52C47.22 9.04 47.22 8.99 46.97 8.84L46.89 8.8C46.85 8.77 46.85 8.66 46.89 8.63C47.09 8.57 47.47 8.45 47.77 8.3C47.8 8.3 47.83 8.31 47.85 8.34C47.84 8.59 47.82 8.99 47.82 9.35L47.82 12.9"/><path data-role="name" fill="#234075" d="M49.94 11.76C50.54 11.76 50.72 11.73 50.78 11.68C50.81 11.67 50.83 11.63 50.83 11.53C50.83 11.3 50.68 11.02 50.21 11.02C49.73 11.02 49.32 11.46 49.31 11.72C49.31 11.74 49.31 11.76 49.37 11.76L49.94 11.76M49.44 12.01C49.23 12.01 49.22 12.02 49.22 12.22C49.22 13.04 49.7 13.74 50.56 13.74C50.83 13.74 51.06 13.66 51.31 13.34C51.39 13.32 51.44 13.36 51.45 13.44C51.19 13.99 50.6 14.19 50.18 14.19C49.66 14.19 49.25 13.96 49.01 13.66C48.77 13.34 48.67 12.96 48.67 12.6C48.67 11.61 49.33 10.78 50.3 10.78C50.99 10.78 51.44 11.25 51.44 11.74C51.44 11.85 51.43 11.92 51.41 11.95C51.39 12 51.27 12.01 50.94 12.01L49.44 12.01"/><path data-role="name" fill="#234075" d="M53.81 10.92C53.88 11.1 53.93 11.36 53.93 11.58C53.9 11.63 53.78 11.65 53.74 11.6C53.6 11.25 53.36 11.01 53.03 11.01C52.71 11.01 52.51 11.21 52.51 11.5C52.51 11.84 52.85 12.01 53.13 12.18C53.56 12.42 53.96 12.69 53.96 13.27C53.96 13.88 53.39 14.19 52.79 14.19C52.41 14.19 52.13 14.11 51.93 13.95C51.86 13.79 51.82 13.4 51.83 13.13C51.87 13.08 51.98 13.07 52.02 13.12C52.16 13.57 52.41 13.95 52.88 13.95C53.17 13.95 53.42 13.78 53.42 13.44C53.42 13.06 53.09 12.86 52.79 12.69C52.33 12.43 51.99 12.14 51.99 11.7C51.99 11.11 52.48 10.78 53.09 10.78C53.43 10.78 53.73 10.86 53.81 10.92"/><path data-role="name" fill="#234075" d="M1.65 22.08C0.97 22.08 0.54 21.87 0.39 21.78C0.29 21.6 0.19 21.03 0.17 20.65C0.21 20.59 0.33 20.58 0.36 20.63C0.49 21.04 0.82 21.83 1.75 21.83C2.43 21.83 2.77 21.39 2.77 20.9C2.77 20.54 2.69 20.15 2.1 19.77L1.33 19.27C0.93 19 0.46 18.54 0.46 17.88C0.46 17.11 1.06 16.49 2.11 16.49C2.36 16.49 2.65 16.53 2.86 16.59C2.97 16.62 3.08 16.64 3.15 16.64C3.22 16.83 3.29 17.29 3.29 17.63C3.26 17.67 3.13 17.7 3.09 17.65C2.98 17.26 2.77 16.74 1.99 16.74C1.2 16.74 1.03 17.26 1.03 17.63C1.03 18.1 1.42 18.44 1.71 18.63L2.36 19.03C2.87 19.35 3.37 19.82 3.37 20.58C3.37 21.47 2.7 22.08 1.65 22.08"/><path data-role="name" fill="#234075" d="M5.17 19.64C5.76 19.64 5.94 19.61 6.01 19.56C6.03 19.54 6.06 19.51 6.06 19.4C6.06 19.18 5.9 18.89 5.43 18.89C4.96 18.89 4.54 19.33 4.54 19.6C4.54 19.61 4.54 19.64 4.59 19.64L5.17 19.64M4.67 19.88C4.46 19.88 4.45 19.9 4.45 20.1C4.45 20.92 4.92 21.61 5.79 21.61C6.06 21.61 6.28 21.53 6.53 21.21C6.61 21.19 6.67 21.24 6.68 21.31C6.41 21.86 5.83 22.06 5.41 22.06C4.88 22.06 4.47 21.84 4.24 21.53C3.99 21.21 3.9 20.84 3.9 20.48C3.9 19.48 4.55 18.65 5.52 18.65C6.22 18.65 6.67 19.13 6.67 19.61C6.67 19.73 6.65 19.79 6.64 19.82C6.61 19.87 6.5 19.88 6.16 19.88L4.67 19.88"/><path data-role="name" fill="#234075" d="M7.53 19.63C7.53 19.32 7.53 19.27 7.31 19.13L7.24 19.08C7.2 19.05 7.2 18.96 7.24 18.94C7.43 18.87 7.86 18.66 8.06 18.54C8.1 18.55 8.13 18.56 8.13 18.6L8.13 19.06C8.13 19.11 8.13 19.13 8.15 19.14C8.43 18.9 8.74 18.65 9.04 18.65C9.24 18.65 9.4 18.78 9.4 18.98C9.4 19.24 9.18 19.35 9.06 19.35C8.97 19.35 8.93 19.32 8.88 19.29C8.76 19.21 8.64 19.16 8.52 19.16C8.39 19.16 8.3 19.23 8.23 19.32C8.15 19.44 8.13 19.67 8.13 19.95L8.13 21.05C8.13 21.63 8.14 21.72 8.45 21.75L8.74 21.77C8.8 21.81 8.78 21.95 8.72 21.97C8.34 21.96 8.11 21.95 7.83 21.95C7.54 21.95 7.29 21.96 7.08 21.97C7.03 21.95 7.01 21.81 7.07 21.77L7.22 21.75C7.52 21.7 7.53 21.63 7.53 21.05L7.53 19.63"/><path data-role="name" fill="#234075" d="M10.23 19.57C10.11 19.27 10.03 19.01 9.74 18.97L9.58 18.94C9.53 18.88 9.54 18.77 9.6 18.74C9.81 18.76 10.09 18.77 10.36 18.77C10.58 18.77 10.74 18.76 11.02 18.74C11.08 18.77 11.08 18.9 11.03 18.94L10.93 18.96C10.68 19 10.67 19.04 10.75 19.28C10.94 19.84 11.17 20.41 11.36 20.83C11.43 20.99 11.46 21.06 11.49 21.09C11.52 21.06 11.58 20.95 11.64 20.78L12.1 19.59C12.22 19.31 12.25 19.14 12.25 19.09C12.25 19.02 12.2 18.98 12.1 18.97L11.92 18.94C11.87 18.89 11.88 18.77 11.93 18.74C12.18 18.76 12.39 18.77 12.54 18.77C12.74 18.77 12.88 18.76 13.11 18.74C13.16 18.77 13.17 18.9 13.12 18.94L13 18.96C12.72 19 12.64 19.21 12.41 19.66C12.3 19.88 11.8 21.05 11.67 21.39C11.59 21.59 11.5 21.77 11.4 22.05C11.38 22.07 11.35 22.08 11.32 22.08C11.28 22.08 11.24 22.07 11.21 22.05C11.15 21.82 11.03 21.51 10.91 21.21L10.23 19.57"/><path data-role="name" fill="#234075" d="M14.44 17.33C14.44 17.62 14.24 17.75 14.01 17.75C13.76 17.75 13.6 17.56 13.6 17.34C13.6 17.08 13.79 16.91 14.04 16.91C14.28 16.91 14.44 17.1 14.44 17.33M13.77 19.63C13.77 19.31 13.77 19.27 13.55 19.13L13.48 19.08C13.45 19.05 13.45 18.96 13.49 18.94C13.67 18.87 14.13 18.66 14.32 18.54C14.36 18.54 14.39 18.56 14.4 18.59C14.38 18.87 14.37 19.26 14.37 19.59L14.37 21.05C14.37 21.63 14.38 21.71 14.67 21.75L14.84 21.77C14.9 21.81 14.88 21.95 14.83 21.97C14.59 21.96 14.35 21.95 14.07 21.95C13.78 21.95 13.53 21.96 13.31 21.97C13.25 21.95 13.23 21.81 13.29 21.77L13.46 21.75C13.76 21.71 13.77 21.63 13.77 21.05L13.77 19.63"/><path data-role="name" fill="#234075" d="M17.9 18.79C17.96 18.85 18.02 18.98 18.02 19.11C18.02 19.26 17.94 19.41 17.84 19.41C17.8 19.41 17.76 19.4 17.73 19.36C17.55 19.14 17.25 18.93 16.92 18.93C16.36 18.93 15.81 19.37 15.81 20.23C15.81 20.86 16.24 21.61 17.11 21.61C17.58 21.61 17.82 21.4 18 21.13C18.07 21.11 18.14 21.17 18.15 21.24C17.88 21.84 17.27 22.06 16.8 22.06C16.37 22.06 15.98 21.93 15.69 21.65C15.41 21.38 15.22 20.98 15.22 20.45C15.22 19.58 15.84 18.65 17.18 18.65C17.37 18.65 17.68 18.69 17.9 18.79"/><path data-role="name" fill="#234075" d="M19.72 19.64C20.32 19.64 20.49 19.61 20.56 19.56C20.58 19.54 20.61 19.51 20.61 19.4C20.61 19.18 20.45 18.89 19.99 18.89C19.51 18.89 19.1 19.33 19.09 19.6C19.09 19.61 19.09 19.64 19.14 19.64L19.72 19.64M19.22 19.88C19.01 19.88 19 19.9 19 20.1C19 20.92 19.48 21.61 20.34 21.61C20.61 21.61 20.83 21.53 21.08 21.21C21.17 21.19 21.22 21.24 21.23 21.31C20.96 21.86 20.38 22.06 19.96 22.06C19.44 22.06 19.02 21.84 18.79 21.53C18.55 21.21 18.45 20.84 18.45 20.48C18.45 19.48 19.1 18.65 20.07 18.65C20.77 18.65 21.22 19.13 21.22 19.61C21.22 19.73 21.21 19.79 21.19 19.82C21.17 19.87 21.05 19.88 20.71 19.88L19.22 19.88"/><path data-role="name" fill="#234075" d="M23.5 18.8C23.57 18.98 23.63 19.23 23.63 19.45C23.6 19.51 23.48 19.52 23.44 19.48C23.3 19.12 23.06 18.89 22.73 18.89C22.41 18.89 22.21 19.09 22.21 19.38C22.21 19.71 22.55 19.89 22.83 20.05C23.26 20.29 23.66 20.57 23.66 21.14C23.66 21.76 23.09 22.06 22.49 22.06C22.11 22.06 21.83 21.98 21.63 21.82C21.56 21.67 21.51 21.27 21.53 21C21.57 20.96 21.68 20.95 21.72 21C21.85 21.44 22.11 21.83 22.57 21.83C22.86 21.83 23.11 21.66 23.11 21.31C23.11 20.94 22.79 20.74 22.49 20.57C22.02 20.3 21.69 20.02 21.69 19.57C21.69 18.98 22.18 18.65 22.79 18.65C23.13 18.65 23.43 18.73 23.5 18.8"/><path data-role="name" fill="#234075" d="M27.17 21.7C27.34 21.7 27.59 21.58 27.67 21.5C27.76 21.4 27.76 21.29 27.77 21.12L27.79 20.64C27.79 20.55 27.76 20.54 27.71 20.54C27.66 20.54 27.52 20.57 27.38 20.62C26.9 20.78 26.66 20.9 26.66 21.22C26.66 21.35 26.76 21.7 27.17 21.7M27.67 18.16C27.67 18.23 27.55 18.26 27.5 18.26L26.51 17.18C26.41 17.08 26.37 17 26.37 16.93C26.37 16.87 26.42 16.8 26.53 16.72C26.64 16.62 26.75 16.59 26.81 16.59C26.9 16.59 26.96 16.68 27.01 16.79L27.67 18.16M27.67 20.28C27.8 20.24 27.81 20.16 27.81 20.04L27.82 19.67C27.83 19.37 27.73 18.97 27.23 18.97C27 18.97 26.73 19.08 26.71 19.33C26.7 19.46 26.7 19.56 26.63 19.61C26.51 19.7 26.29 19.76 26.17 19.76C26.1 19.76 26.06 19.72 26.06 19.65C26.06 19.23 26.97 18.65 27.56 18.65C28.14 18.65 28.43 18.99 28.4 19.6L28.35 21.01C28.34 21.38 28.41 21.71 28.73 21.71C28.81 21.71 28.88 21.68 28.93 21.66C28.97 21.64 29.01 21.6 29.03 21.6C29.07 21.6 29.09 21.65 29.09 21.71C29.09 21.75 28.81 22.06 28.41 22.06C28.22 22.06 28.02 21.99 27.88 21.81C27.85 21.77 27.8 21.7 27.76 21.7C27.7 21.7 27.6 21.77 27.44 21.86C27.26 21.96 27.08 22.06 26.86 22.06C26.62 22.06 26.43 22 26.29 21.88C26.14 21.74 26.04 21.54 26.04 21.31C26.04 21 26.2 20.81 26.71 20.63L27.67 20.28"/><path data-role="name" fill="#234075" d="M32.19 21.05C32.19 21.63 32.21 21.71 32.5 21.75L32.69 21.77C32.75 21.81 32.74 21.95 32.68 21.97C32.41 21.96 32.18 21.95 31.89 21.95C31.6 21.95 31.36 21.96 31.12 21.97C31.06 21.95 31.05 21.81 31.1 21.77L31.29 21.75C31.59 21.71 31.6 21.63 31.6 21.05L31.6 17.39C31.6 16.91 31.59 16.87 31.34 16.72L31.26 16.67C31.22 16.65 31.22 16.53 31.26 16.51C31.47 16.45 31.85 16.32 32.14 16.17C32.17 16.17 32.2 16.19 32.22 16.22C32.21 16.46 32.19 16.87 32.19 17.22L32.19 21.05"/><path data-role="name" fill="#234075" d="M34.22 21.7C34.38 21.7 34.63 21.58 34.71 21.5C34.81 21.4 34.81 21.29 34.81 21.12L34.83 20.64C34.83 20.55 34.8 20.54 34.75 20.54C34.7 20.54 34.56 20.57 34.42 20.62C33.94 20.78 33.71 20.9 33.71 21.22C33.71 21.35 33.8 21.7 34.22 21.7M34.72 20.28C34.84 20.24 34.85 20.16 34.85 20.04L34.86 19.67C34.87 19.37 34.77 18.97 34.27 18.97C34.05 18.97 33.77 19.08 33.75 19.33C33.75 19.46 33.74 19.56 33.67 19.61C33.55 19.7 33.33 19.76 33.21 19.76C33.14 19.76 33.1 19.72 33.1 19.65C33.1 19.23 34.01 18.65 34.6 18.65C35.19 18.65 35.47 18.99 35.44 19.6L35.4 21.01C35.38 21.38 35.45 21.71 35.77 21.71C35.85 21.71 35.92 21.68 35.97 21.66C36.01 21.64 36.05 21.6 36.08 21.6C36.11 21.6 36.13 21.65 36.13 21.71C36.13 21.75 35.85 22.06 35.45 22.06C35.26 22.06 35.06 21.99 34.93 21.81C34.89 21.77 34.85 21.7 34.8 21.7C34.74 21.7 34.64 21.77 34.48 21.86C34.3 21.96 34.13 22.06 33.9 22.06C33.67 22.06 33.47 22 33.33 21.88C33.18 21.74 33.08 21.54 33.08 21.31C33.08 21 33.24 20.81 33.75 20.63L34.72 20.28"/><path data-role="name" fill="#234075" d="M39.21 21.13C39.21 21.39 39.29 21.49 39.45 21.62C39.62 21.74 39.87 21.8 40.04 21.8C40.7 21.8 41.09 21.18 41.09 20.34C41.09 19.7 40.72 19.04 40 19.04C39.65 19.04 39.4 19.17 39.31 19.27C39.24 19.36 39.21 19.48 39.21 19.74L39.21 21.13M38.61 19.63C38.61 19.32 38.61 19.27 38.4 19.13L38.32 19.08C38.29 19.05 38.29 18.96 38.33 18.94C38.54 18.85 38.92 18.65 39.13 18.5C39.18 18.5 39.21 18.52 39.23 18.56C39.21 18.7 39.2 18.82 39.2 18.93C39.2 18.98 39.21 19.03 39.27 19.03C39.37 18.98 39.88 18.65 40.4 18.65C41.22 18.65 41.74 19.32 41.74 20.13C41.74 21.26 40.92 22.06 39.77 22.06C39.62 22.06 39.4 22.05 39.32 22.03C39.25 22.05 39.21 22.09 39.21 22.26L39.21 23.11C39.21 23.68 39.23 23.75 39.52 23.79L39.83 23.83C39.89 23.88 39.87 24.01 39.82 24.04C39.43 24.02 39.2 24.01 38.91 24.01C38.62 24.01 38.38 24.02 38.15 24.04C38.1 24.01 38.08 23.88 38.14 23.83L38.31 23.81C38.61 23.77 38.61 23.69 38.61 23.11L38.61 19.63"/><path data-role="name" fill="#234075" d="M43.5 19.64C44.09 19.64 44.27 19.61 44.34 19.56C44.36 19.54 44.39 19.51 44.39 19.4C44.39 19.18 44.23 18.89 43.76 18.89C43.29 18.89 42.87 19.33 42.87 19.6C42.87 19.61 42.87 19.64 42.92 19.64L43.5 19.64M43 19.88C42.79 19.88 42.78 19.9 42.78 20.1C42.78 20.92 43.25 21.61 44.12 21.61C44.39 21.61 44.61 21.53 44.86 21.21C44.94 21.19 45 21.24 45.01 21.31C44.74 21.86 44.16 22.06 43.74 22.06C43.21 22.06 42.8 21.84 42.57 21.53C42.32 21.21 42.23 20.84 42.23 20.48C42.23 19.48 42.88 18.65 43.85 18.65C44.55 18.65 45 19.13 45 19.61C45 19.73 44.98 19.79 44.97 19.82C44.94 19.87 44.83 19.88 44.49 19.88L43 19.88"/><path data-role="name" fill="#234075" d="M46.52 19.11C46.38 19.11 46.37 19.13 46.37 19.3L46.37 20.81C46.37 21.28 46.43 21.71 46.97 21.71C47.05 21.71 47.12 21.69 47.18 21.67C47.26 21.64 47.36 21.56 47.39 21.56C47.45 21.56 47.48 21.64 47.47 21.69C47.32 21.86 47.03 22.06 46.62 22.06C45.92 22.06 45.78 21.68 45.78 21.19L45.78 19.34C45.78 19.12 45.77 19.11 45.61 19.11L45.38 19.11C45.33 19.07 45.32 18.98 45.36 18.94C45.59 18.86 45.79 18.76 45.87 18.69C45.98 18.59 46.13 18.37 46.21 18.21C46.25 18.19 46.35 18.19 46.38 18.25L46.38 18.61C46.38 18.76 46.39 18.77 46.53 18.77L47.43 18.77C47.52 18.84 47.51 19.06 47.43 19.11L46.52 19.11"/><path data-role="name" fill="#234075" d="M48.93 17.33C48.93 17.62 48.73 17.75 48.5 17.75C48.25 17.75 48.09 17.56 48.09 17.34C48.09 17.08 48.28 16.91 48.53 16.91C48.77 16.91 48.93 17.1 48.93 17.33M48.26 19.63C48.26 19.31 48.26 19.27 48.04 19.13L47.97 19.08C47.93 19.05 47.93 18.96 47.98 18.94C48.16 18.87 48.62 18.66 48.81 18.54C48.85 18.54 48.88 18.56 48.89 18.59C48.87 18.87 48.86 19.26 48.86 19.59L48.86 21.05C48.86 21.63 48.87 21.71 49.16 21.75L49.33 21.77C49.39 21.81 49.37 21.95 49.32 21.97C49.08 21.96 48.84 21.95 48.56 21.95C48.27 21.95 48.02 21.96 47.8 21.97C47.74 21.95 47.72 21.81 47.78 21.77L47.95 21.75C48.25 21.71 48.26 21.63 48.26 21.05L48.26 19.63"/><path data-role="name" fill="#234075" d="M50.88 19.11C50.74 19.11 50.73 19.13 50.73 19.3L50.73 20.81C50.73 21.28 50.79 21.71 51.32 21.71C51.4 21.71 51.48 21.69 51.54 21.67C51.61 21.64 51.72 21.56 51.74 21.56C51.81 21.56 51.84 21.64 51.82 21.69C51.68 21.86 51.39 22.06 50.98 22.06C50.28 22.06 50.13 21.68 50.13 21.19L50.13 19.34C50.13 19.12 50.13 19.11 49.96 19.11L49.74 19.11C49.69 19.07 49.68 18.98 49.71 18.94C49.95 18.86 50.15 18.76 50.23 18.69C50.34 18.59 50.49 18.37 50.57 18.21C50.61 18.19 50.71 18.19 50.74 18.25L50.74 18.61C50.74 18.76 50.75 18.77 50.89 18.77L51.78 18.77C51.88 18.84 51.86 19.06 51.79 19.11L50.88 19.11"/><path data-role="name" fill="#234075" d="M53.38 19.64C53.97 19.64 54.15 19.61 54.22 19.56C54.24 19.54 54.27 19.51 54.27 19.4C54.27 19.18 54.11 18.89 53.64 18.89C53.17 18.89 52.75 19.33 52.75 19.6C52.75 19.61 52.75 19.64 52.8 19.64L53.38 19.64M52.88 19.88C52.67 19.88 52.66 19.9 52.66 20.1C52.66 20.92 53.13 21.61 54 21.61C54.27 21.61 54.49 21.53 54.74 21.21C54.82 21.19 54.88 21.24 54.89 21.31C54.62 21.86 54.04 22.06 53.62 22.06C53.09 22.06 52.68 21.84 52.45 21.53C52.2 21.21 52.11 20.84 52.11 20.48C52.11 19.48 52.76 18.65 53.73 18.65C54.43 18.65 54.88 19.13 54.88 19.61C54.88 19.73 54.86 19.79 54.85 19.82C54.82 19.87 54.71 19.88 54.37 19.88L52.88 19.88"/><path data-role="name" fill="#234075" d="M58.44 19.64C59.04 19.64 59.21 19.61 59.28 19.56C59.3 19.54 59.33 19.51 59.33 19.4C59.33 19.18 59.17 18.89 58.7 18.89C58.23 18.89 57.82 19.33 57.81 19.6C57.81 19.61 57.81 19.64 57.86 19.64L58.44 19.64M57.94 19.88C57.73 19.88 57.72 19.9 57.72 20.1C57.72 20.92 58.19 21.61 59.06 21.61C59.33 21.61 59.55 21.53 59.8 21.21C59.88 21.19 59.94 21.24 59.95 21.31C59.68 21.86 59.1 22.06 58.68 22.06C58.15 22.06 57.74 21.84 57.51 21.53C57.27 21.21 57.17 20.84 57.17 20.48C57.17 19.48 57.82 18.65 58.79 18.65C59.49 18.65 59.94 19.13 59.94 19.61C59.94 19.73 59.93 19.79 59.91 19.82C59.88 19.87 59.77 19.88 59.43 19.88L57.94 19.88"/><path data-role="name" fill="#234075" d="M60.8 19.63C60.8 19.32 60.8 19.27 60.58 19.13L60.51 19.08C60.48 19.05 60.48 18.96 60.52 18.94C60.7 18.87 61.16 18.66 61.32 18.54C61.36 18.54 61.4 18.56 61.41 18.6C61.4 18.78 61.4 18.9 61.4 18.98C61.4 19.02 61.43 19.06 61.49 19.06C61.83 18.85 62.21 18.65 62.62 18.65C63.29 18.65 63.56 19.11 63.56 19.65L63.56 21.05C63.56 21.63 63.58 21.71 63.87 21.75L64.05 21.77C64.11 21.81 64.09 21.95 64.03 21.97C63.79 21.96 63.56 21.95 63.27 21.95C62.98 21.95 62.74 21.96 62.52 21.97C62.46 21.95 62.45 21.81 62.5 21.77L62.66 21.75C62.96 21.7 62.97 21.63 62.97 21.05L62.97 19.84C62.97 19.38 62.76 19.04 62.21 19.04C61.9 19.04 61.63 19.17 61.52 19.32C61.41 19.46 61.4 19.57 61.4 19.81L61.4 21.05C61.4 21.63 61.41 21.7 61.7 21.75L61.85 21.77C61.91 21.81 61.89 21.95 61.83 21.97C61.62 21.96 61.38 21.95 61.1 21.95C60.81 21.95 60.56 21.96 60.34 21.97C60.28 21.95 60.27 21.81 60.32 21.77L60.49 21.75C60.79 21.71 60.8 21.63 60.8 21.05L60.8 19.63"/><path data-role="name" fill="#234075" d="M65.67 19.11C65.54 19.11 65.54 19.12 65.54 19.34L65.54 21.05C65.54 21.63 65.55 21.72 65.84 21.75L66.13 21.77C66.19 21.81 66.17 21.95 66.12 21.98C65.75 21.96 65.52 21.95 65.24 21.95C64.95 21.95 64.7 21.96 64.46 21.98C64.4 21.95 64.39 21.81 64.44 21.77L64.63 21.75C64.93 21.71 64.94 21.63 64.94 21.05L64.94 19.34C64.94 19.12 64.94 19.11 64.78 19.11L64.49 19.11C64.44 19.07 64.44 19 64.47 18.95L64.82 18.78C64.88 18.75 64.94 18.7 64.94 18.62C64.94 18.15 64.99 17.65 65.19 17.2C65.39 16.74 65.84 16.17 66.64 16.17C67.07 16.17 67.44 16.36 67.44 16.66C67.44 16.82 67.28 16.95 67.13 16.95C67.04 16.95 66.99 16.91 66.93 16.85C66.78 16.67 66.55 16.49 66.29 16.49C66.04 16.49 65.84 16.65 65.71 16.94C65.57 17.31 65.54 17.9 65.54 18.31L65.54 18.54C65.54 18.76 65.54 18.77 65.67 18.77L66.6 18.77C66.68 18.85 66.63 19.07 66.54 19.11L65.67 19.11"/><path data-role="name" fill="#234075" d="M67.85 21.7C68.01 21.7 68.26 21.58 68.34 21.5C68.44 21.4 68.44 21.29 68.45 21.12L68.46 20.64C68.46 20.55 68.43 20.54 68.38 20.54C68.33 20.54 68.2 20.57 68.05 20.62C67.57 20.78 67.34 20.9 67.34 21.22C67.34 21.35 67.44 21.7 67.85 21.7M68.35 20.28C68.47 20.24 68.49 20.16 68.49 20.04L68.5 19.67C68.5 19.37 68.41 18.97 67.91 18.97C67.68 18.97 67.4 19.08 67.39 19.33C67.38 19.46 67.37 19.56 67.31 19.61C67.19 19.7 66.97 19.76 66.85 19.76C66.77 19.76 66.73 19.72 66.73 19.65C66.73 19.23 67.65 18.65 68.24 18.65C68.82 18.65 69.1 18.99 69.08 19.6L69.03 21.01C69.01 21.38 69.09 21.71 69.4 21.71C69.48 21.71 69.55 21.68 69.6 21.66C69.64 21.64 69.68 21.6 69.71 21.6C69.74 21.6 69.76 21.65 69.76 21.71C69.76 21.75 69.48 22.06 69.09 22.06C68.89 22.06 68.7 21.99 68.56 21.81C68.53 21.77 68.48 21.7 68.43 21.7C68.37 21.7 68.28 21.77 68.12 21.86C67.94 21.96 67.76 22.06 67.53 22.06C67.3 22.06 67.1 22 66.97 21.88C66.81 21.74 66.72 21.54 66.72 21.31C66.72 21 66.87 20.81 67.39 20.63L68.35 20.28"/><path data-role="name" fill="#234075" d="M70.41 19.63C70.41 19.32 70.41 19.27 70.19 19.13L70.12 19.08C70.09 19.05 70.09 18.96 70.13 18.94C70.31 18.87 70.78 18.66 70.94 18.54C70.97 18.54 71.01 18.56 71.03 18.6C71.01 18.78 71.01 18.9 71.01 18.98C71.01 19.02 71.04 19.06 71.1 19.06C71.44 18.85 71.82 18.65 72.23 18.65C72.9 18.65 73.18 19.11 73.18 19.65L73.18 21.05C73.18 21.63 73.19 21.71 73.48 21.75L73.66 21.77C73.72 21.81 73.7 21.95 73.65 21.97C73.4 21.96 73.17 21.95 72.89 21.95C72.59 21.95 72.35 21.96 72.13 21.97C72.08 21.95 72.06 21.81 72.12 21.77L72.27 21.75C72.57 21.7 72.58 21.63 72.58 21.05L72.58 19.84C72.58 19.38 72.37 19.04 71.82 19.04C71.51 19.04 71.24 19.17 71.13 19.32C71.03 19.46 71.01 19.57 71.01 19.81L71.01 21.05C71.01 21.63 71.03 21.7 71.32 21.75L71.46 21.77C71.52 21.81 71.5 21.95 71.45 21.97C71.23 21.96 70.99 21.95 70.71 21.95C70.42 21.95 70.18 21.96 69.95 21.97C69.89 21.95 69.88 21.81 69.93 21.77L70.1 21.75C70.4 21.71 70.41 21.63 70.41 21.05L70.41 19.63"/><path data-role="name" fill="#234075" d="M76.67 18.79C76.73 18.85 76.79 18.98 76.79 19.11C76.79 19.26 76.71 19.41 76.61 19.41C76.57 19.41 76.53 19.4 76.5 19.36C76.32 19.14 76.02 18.93 75.69 18.93C75.12 18.93 74.57 19.37 74.57 20.23C74.57 20.86 75.01 21.61 75.88 21.61C76.34 21.61 76.59 21.4 76.77 21.13C76.84 21.11 76.91 21.17 76.92 21.24C76.64 21.84 76.04 22.06 75.57 22.06C75.14 22.06 74.74 21.93 74.46 21.65C74.18 21.38 73.99 20.98 73.99 20.45C73.99 19.58 74.61 18.65 75.95 18.65C76.13 18.65 76.45 18.69 76.67 18.79"/><path data-role="name" fill="#234075" d="M78.49 19.64C79.09 19.64 79.26 19.61 79.33 19.56C79.35 19.54 79.38 19.51 79.38 19.4C79.38 19.18 79.22 18.89 78.76 18.89C78.28 18.89 77.87 19.33 77.86 19.6C77.86 19.61 77.86 19.64 77.91 19.64L78.49 19.64M77.99 19.88C77.78 19.88 77.77 19.9 77.77 20.1C77.77 20.92 78.25 21.61 79.11 21.61C79.38 21.61 79.6 21.53 79.85 21.21C79.94 21.19 79.99 21.24 80 21.31C79.73 21.86 79.15 22.06 78.73 22.06C78.2 22.06 77.79 21.84 77.56 21.53C77.32 21.21 77.22 20.84 77.22 20.48C77.22 19.48 77.87 18.65 78.84 18.65C79.54 18.65 79.99 19.13 79.99 19.61C79.99 19.73 79.98 19.79 79.96 19.82C79.94 19.87 79.82 19.88 79.48 19.88L77.99 19.88"/></g></svg>